{"id": "T0", "fps": {"num": 25, "den": 1}, "width": 1024, "height": 576, "sample_rate": 44100, "channels": 2, "channel_layout": 3, "settings": {}, "clips": [{"alpha": {"Points": [{"co": {"X": 1.0, "Y": 1.0}, "interpolation": 2}]}, "anchor": 0, "channel_filter": {"Points": [{"co": {"X": 1.0, "Y": -1.0}, "interpolation": 2}]}, "channel_mapping": {"Points": [{"co": {"X": 1.0, "Y": -1.0}, "interpolation": 2}]}, "crop_height": {"Points": [{"co": {"X": 1.0, "Y": -1.0}, "interpolation": 2}]}, "crop_width": {"Points": [{"co": {"X": 1.0, "Y": -1.0}, "interpolation": 2}]}, "crop_x": {"Points": [{"co": {"X": 1.0, "Y": 0.0}, "interpolation": 2}]}, "crop_y": {"Points": [{"co": {"X": 1.0, "Y": 0.0}, "interpolation": 2}]}, "display": 0, "duration": 7.48799991607666, "effects": [], "end": 1.12, "gravity": 4, "has_audio": {"Points": [{"co": {"X": 1.0, "Y": 0.0}, "interpolation": 2}]}, "has_video": {"Points": [{"co": {"X": 1.0, "Y": -1.0}, "interpolation": 2}]}, "id": "ZMM4IP57C3", "layer": 0, "location_x": {"Points": [{"co": {"X": 1.0, "Y": 0.0}, "interpolation": 2}]}, "location_y": {"Points": [{"co": {"X": 1.0, "Y": 0.0}, "interpolation": 2}]}, "mixing": 0, "perspective_c1_x": {"Points": [{"co": {"X": 1.0, "Y": -1.0}, "interpolation": 2}]}, "perspective_c1_y": {"Points": [{"co": {"X": 1.0, "Y": -1.0}, "interpolation": 2}]}, "perspective_c2_x": {"Points": [{"co": {"X": 1.0, "Y": -1.0}, "interpolation": 2}]}, "perspective_c2_y": {"Points": [{"co": {"X": 1.0, "Y": -1.0}, "interpolation": 2}]}, "perspective_c3_x": {"Points": [{"co": {"X": 1.0, "Y": -1.0}, "interpolation": 2}]}, "perspective_c3_y": {"Points": [{"co": {"X": 1.0, "Y": -1.0}, "interpolation": 2}]}, "perspective_c4_x": {"Points": [{"co": {"X": 1.0, "Y": -1.0}, "interpolation": 2}]}, "perspective_c4_y": {"Points": [{"co": {"X": 1.0, "Y": -1.0}, "interpolation": 2}]}, "position": 0, "reader": {"acodec": "aac", "audio_bit_rate": 256001, "audio_stream_index": 1, "audio_timebase": {"den": 48000, "num": 1}, "channel_layout": 3, "channels": 2, "display_ratio": {"den": 9, "num": 16}, "duration": 7.48799991607666, "file_size": "16365400", "fps": {"den": 170339, "num": 5107500}, "has_audio": true, "has_single_image": false, "has_video": true, "height": 1080, "interlaced_frame": false, "metadata": {"com.android.version": "8.0.0", "compatible_brands": "isommp42", "creation_time": "2019-03-12T16:54:43.000000Z", "handler_name": "SoundHandle", "language": "eng", "major_brand": "mp42", "minor_version": "0", "rotate": "270"}, "path": "../Downloads/rental/20190312_235435.mp4", "pixel_format": 0, "pixel_ratio": {"den": 1, "num": 1}, "sample_rate": 48000, "top_field_first": true, "type": "FFmpegReader", "vcodec": "h264", "video_bit_rate": 2165308, "video_length": "227", "video_stream_index": 0, "video_timebase": {"den": 90000, "num": 1}, "width": 1920}, "rotation": {"Points": [{"co": {"X": 1.0, "Y": 270.0}, "interpolation": 2}]}, "scale": 1, "scale_x": {"Points": [{"co": {"X": 1.0, "Y": 1.0}, "interpolation": 2}]}, "scale_y": {"Points": [{"co": {"X": 1.0, "Y": 1.0}, "interpolation": 2}]}, "shear_x": {"Points": [{"co": {"X": 1.0, "Y": 0.0}, "interpolation": 2}]}, "shear_y": {"Points": [{"co": {"X": 1.0, "Y": 0.0}, "interpolation": 2}]}, "start": 0, "time": {"Points": [{"co": {"X": 1.0, "Y": 1.0}, "interpolation": 2}]}, "volume": {"Points": [{"co": {"X": 1.0, "Y": 1.0}, "interpolation": 2}]}, "wave_color": {"alpha": {"Points": [{"co": {"X": 1.0, "Y": 255.0}, "handle_left": {"X": 0.5, "Y": 1.0}, "handle_right": {"X": 0.5, "Y": 0.0}, "handle_type": 0, "interpolation": 0}]}, "blue": {"Points": [{"co": {"X": 1.0, "Y": 255.0}, "handle_left": {"X": 0.5, "Y": 1.0}, "handle_right": {"X": 0.5, "Y": 0.0}, "handle_type": 0, "interpolation": 0}]}, "green": {"Points": [{"co": {"X": 1.0, "Y": 123.0}, "handle_left": {"X": 0.5, "Y": 1.0}, "handle_right": {"X": 0.5, "Y": 0.0}, "handle_type": 0, "interpolation": 0}]}, "red": {"Points": [{"co": {"X": 1.0, "Y": 0.0}, "handle_left": {"X": 0.5, "Y": 1.0}, "handle_right": {"X": 0.5, "Y": 0.0}, "handle_type": 0, "interpolation": 0}]}}, "waveform": false, "file_id": "6Q1HKONW84", "title": "20190312_235435.mp4", "image": "../.openshot_qt/thumbnail/6Q1HKONW84.png"}, {"alpha": {"Points": [{"co": {"X": 1.0, "Y": 1.0}, "interpolation": 2}]}, "anchor": 0, "channel_filter": {"Points": [{"co": {"X": 1.0, "Y": -1.0}, "interpolation": 2}]}, "channel_mapping": {"Points": [{"co": {"X": 1.0, "Y": -1.0}, "interpolation": 2}]}, "crop_height": {"Points": [{"co": {"X": 1.0, "Y": -1.0}, "interpolation": 2}]}, "crop_width": {"Points": [{"co": {"X": 1.0, "Y": -1.0}, "interpolation": 2}]}, "crop_x": {"Points": [{"co": {"X": 1.0, "Y": 0.0}, "interpolation": 2}]}, "crop_y": {"Points": [{"co": {"X": 1.0, "Y": 0.0}, "interpolation": 2}]}, "display": 0, "duration": 86400.0, "effects": [], "end": 1.6, "gravity": 4, "has_audio": {"Points": [{"co": {"X": 1.0, "Y": -1.0}, "interpolation": 2}]}, "has_video": {"Points": [{"co": {"X": 1.0, "Y": -1.0}, "interpolation": 2}]}, "id": "N2KC00SZN7", "layer": 0, "location_x": {"Points": [{"co": {"X": 1.0, "Y": 0.0}, "interpolation": 2}, {"co": {"X": 6, "Y": -0.013297872340425532}, "interpolation": 0}]}, "location_y": {"Points": [{"co": {"X": 1.0, "Y": 0.0}, "interpolation": 2}, {"co": {"X": 6, "Y": 0.07075471698113207}, "interpolation": 0}]}, "mixing": 0, "perspective_c1_x": {"Points": [{"co": {"X": 1.0, "Y": -1.0}, "interpolation": 2}]}, "perspective_c1_y": {"Points": [{"co": {"X": 1.0, "Y": -1.0}, "interpolation": 2}]}, "perspective_c2_x": {"Points": [{"co": {"X": 1.0, "Y": -1.0}, "interpolation": 2}]}, "perspective_c2_y": {"Points": [{"co": {"X": 1.0, "Y": -1.0}, "interpolation": 2}]}, "perspective_c3_x": {"Points": [{"co": {"X": 1.0, "Y": -1.0}, "interpolation": 2}]}, "perspective_c3_y": {"Points": [{"co": {"X": 1.0, "Y": -1.0}, "interpolation": 2}]}, "perspective_c4_x": {"Points": [{"co": {"X": 1.0, "Y": -1.0}, "interpolation": 2}]}, "perspective_c4_y": {"Points": [{"co": {"X": 1.0, "Y": -1.0}, "interpolation": 2}]}, "position": 1.12, "reader": {"acodec": "", "audio_bit_rate": 0, "audio_stream_index": -1, "audio_timebase": {"den": 1, "num": 1}, "channel_layout": 4, "channels": 0, "display_ratio": {"den": 709, "num": 391}, "duration": 86400.0, "file_size": "1108876", "fps": {"den": 1, "num": 30}, "has_audio": false, "has_single_image": true, "has_video": true, "height": 709, "interlaced_frame": false, "metadata": {}, "path": "../Downloads/rental/wa1.png", "pixel_format": -1, "pixel_ratio": {"den": 1, "num": 1}, "sample_rate": 0, "top_field_first": true, "type": "QtImageReader", "vcodec": "", "video_bit_rate": 0, "video_length": "2592000", "video_stream_index": -1, "video_timebase": {"den": 30, "num": 1}, "width": 391}, "rotation": {"Points": [{"co": {"X": 1.0, "Y": 0.0}, "interpolation": 2}]}, "scale": 1, "scale_x": {"Points": [{"co": {"X": 1.0, "Y": 1.0}, "interpolation": 2}, {"co": {"X": 6, "Y": 2.675531914893617}, "interpolation": 0}]}, "scale_y": {"Points": [{"co": {"X": 1.0, "Y": 1.0}, "interpolation": 2}, {"co": {"X": 6, "Y": 1.2924528301886793}, "interpolation": 0}]}, "shear_x": {"Points": [{"co": {"X": 1.0, "Y": 0.0}, "interpolation": 2}]}, "shear_y": {"Points": [{"co": {"X": 1.0, "Y": 0.0}, "interpolation": 2}]}, "start": 0, "time": {"Points": [{"co": {"X": 1.0, "Y": 1.0}, "interpolation": 2}]}, "volume": {"Points": [{"co": {"X": 1.0, "Y": 1.0}, "interpolation": 2}]}, "wave_color": {"alpha": {"Points": [{"co": {"X": 1.0, "Y": 255.0}, "handle_left": {"X": 0.5, "Y": 1.0}, "handle_right": {"X": 0.5, "Y": 0.0}, "handle_type": 0, "interpolation": 0}]}, "blue": {"Points": [{"co": {"X": 1.0, "Y": 255.0}, "handle_left": {"X": 0.5, "Y": 1.0}, "handle_right": {"X": 0.5, "Y": 0.0}, "handle_type": 0, "interpolation": 0}]}, "green": {"Points": [{"co": {"X": 1.0, "Y": 123.0}, "handle_left": {"X": 0.5, "Y": 1.0}, "handle_right": {"X": 0.5, "Y": 0.0}, "handle_type": 0, "interpolation": 0}]}, "red": {"Points": [{"co": {"X": 1.0, "Y": 0.0}, "handle_left": {"X": 0.5, "Y": 1.0}, "handle_right": {"X": 0.5, "Y": 0.0}, "handle_type": 0, "interpolation": 0}]}}, "waveform": false, "file_id": "0LJKUK8OVG", "title": "wa1.png", "image": "../.openshot_qt/thumbnail/0LJKUK8OVG.png"}, {"alpha": {"Points": [{"co": {"X": 1.0, "Y": 1.0}, "interpolation": 2}]}, "anchor": 0, "channel_filter": {"Points": [{"co": {"X": 1.0, "Y": -1.0}, "interpolation": 2}]}, "channel_mapping": {"Points": [{"co": {"X": 1.0, "Y": -1.0}, "interpolation": 2}]}, "crop_height": {"Points": [{"co": {"X": 1.0, "Y": -1.0}, "interpolation": 2}]}, "crop_width": {"Points": [{"co": {"X": 1.0, "Y": -1.0}, "interpolation": 2}]}, "crop_x": {"Points": [{"co": {"X": 1.0, "Y": 0.0}, "interpolation": 2}]}, "crop_y": {"Points": [{"co": {"X": 1.0, "Y": 0.0}, "interpolation": 2}]}, "display": 0, "duration": 86400.0, "effects": [], "end": 1.56, "gravity": 4, "has_audio": {"Points": [{"co": {"X": 1.0, "Y": -1.0}, "interpolation": 2}]}, "has_video": {"Points": [{"co": {"X": 1.0, "Y": -1.0}, "interpolation": 2}]}, "id": "CVRMV1KJSY", "layer": 0, "location_x": {"Points": [{"co": {"X": 1.0, "Y": 0.0}, "interpolation": 2}, {"co": {"X": 11, "Y": 0.013297872340425532}, "interpolation": 0}]}, "location_y": {"Points": [{"co": {"X": 1.0, "Y": 0.0}, "interpolation": 2}, {"co": {"X": 11, "Y": 0.1179245283018868}, "interpolation": 0}]}, "mixing": 0, "perspective_c1_x": {"Points": [{"co": {"X": 1.0, "Y": -1.0}, "interpolation": 2}]}, "perspective_c1_y": {"Points": [{"co": {"X": 1.0, "Y": -1.0}, "interpolation": 2}]}, "perspective_c2_x": {"Points": [{"co": {"X": 1.0, "Y": -1.0}, "interpolation": 2}]}, "perspective_c2_y": {"Points": [{"co": {"X": 1.0, "Y": -1.0}, "interpolation": 2}]}, "perspective_c3_x": {"Points": [{"co": {"X": 1.0, "Y": -1.0}, "interpolation": 2}]}, "perspective_c3_y": {"Points": [{"co": {"X": 1.0, "Y": -1.0}, "interpolation": 2}]}, "perspective_c4_x": {"Points": [{"co": {"X": 1.0, "Y": -1.0}, "interpolation": 2}]}, "perspective_c4_y": {"Points": [{"co": {"X": 1.0, "Y": -1.0}, "interpolation": 2}]}, "position": 2.72, "reader": {"acodec": "", "audio_bit_rate": 0, "audio_stream_index": -1, "audio_timebase": {"den": 1, "num": 1}, "channel_layout": 4, "channels": 0, "display_ratio": {"den": 709, "num": 391}, "duration": 86400.0, "file_size": "1108876", "fps": {"den": 1, "num": 30}, "has_audio": false, "has_single_image": true, "has_video": true, "height": 709, "interlaced_frame": false, "metadata": {}, "path": "../Downloads/rental/wa2.png", "pixel_format": -1, "pixel_ratio": {"den": 1, "num": 1}, "sample_rate": 0, "top_field_first": true, "type": "QtImageReader", "vcodec": "", "video_bit_rate": 0, "video_length": "2592000", "video_stream_index": -1, "video_timebase": {"den": 30, "num": 1}, "width": 391}, "rotation": {"Points": [{"co": {"X": 1.0, "Y": 0.0}, "interpolation": 2}]}, "scale": 1, "scale_x": {"Points": [{"co": {"X": 1.0, "Y": 1.0}, "interpolation": 2}, {"co": {"X": 11, "Y": 1.648936170212766}, "interpolation": 0}, {"co": {"X": 20, "Y": 2.5423409919492266}, "interpolation": 0}]}, "scale_y": {"Points": [{"co": {"X": 1.0, "Y": 1.0}, "interpolation": 2}, {"co": {"X": 11, "Y": 1.5}, "interpolation": 0}]}, "shear_x": {"Points": [{"co": {"X": 1.0, "Y": 0.0}, "interpolation": 2}]}, "shear_y": {"Points": [{"co": {"X": 1.0, "Y": 0.0}, "interpolation": 2}]}, "start": 0, "time": {"Points": [{"co": {"X": 1.0, "Y": 1.0}, "interpolation": 2}]}, "volume": {"Points": [{"co": {"X": 1.0, "Y": 1.0}, "interpolation": 2}]}, "wave_color": {"alpha": {"Points": [{"co": {"X": 1.0, "Y": 255.0}, "handle_left": {"X": 0.5, "Y": 1.0}, "handle_right": {"X": 0.5, "Y": 0.0}, "handle_type": 0, "interpolation": 0}]}, "blue": {"Points": [{"co": {"X": 1.0, "Y": 255.0}, "handle_left": {"X": 0.5, "Y": 1.0}, "handle_right": {"X": 0.5, "Y": 0.0}, "handle_type": 0, "interpolation": 0}]}, "green": {"Points": [{"co": {"X": 1.0, "Y": 123.0}, "handle_left": {"X": 0.5, "Y": 1.0}, "handle_right": {"X": 0.5, "Y": 0.0}, "handle_type": 0, "interpolation": 0}]}, "red": {"Points": [{"co": {"X": 1.0, "Y": 0.0}, "handle_left": {"X": 0.5, "Y": 1.0}, "handle_right": {"X": 0.5, "Y": 0.0}, "handle_type": 0, "interpolation": 0}]}}, "waveform": false, "file_id": "3L980KKA17", "title": "wa2.png", "image": "../.openshot_qt/thumbnail/3L980KKA17.png"}, {"alpha": {"Points": [{"co": {"X": 1.0, "Y": 1.0}, "interpolation": 2}]}, "anchor": 0, "channel_filter": {"Points": [{"co": {"X": 1.0, "Y": -1.0}, "interpolation": 2}]}, "channel_mapping": {"Points": [{"co": {"X": 1.0, "Y": -1.0}, "interpolation": 2}]}, "crop_height": {"Points": [{"co": {"X": 1.0, "Y": -1.0}, "interpolation": 2}]}, "crop_width": {"Points": [{"co": {"X": 1.0, "Y": -1.0}, "interpolation": 2}]}, "crop_x": {"Points": [{"co": {"X": 1.0, "Y": 0.0}, "interpolation": 2}]}, "crop_y": {"Points": [{"co": {"X": 1.0, "Y": 0.0}, "interpolation": 2}]}, "display": 0, "duration": 7.48799991607666, "effects": [], "end": 4.16, "gravity": 4, "has_audio": {"Points": [{"co": {"X": 1.0, "Y": 0.0}, "interpolation": 2}]}, "has_video": {"Points": [{"co": {"X": 1.0, "Y": -1.0}, "interpolation": 2}]}, "layer": 0, "location_x": {"Points": [{"co": {"X": 1.0, "Y": 0.0}, "interpolation": 2}]}, "location_y": {"Points": [{"co": {"X": 1.0, "Y": 0.0}, "interpolation": 2}]}, "mixing": 0, "perspective_c1_x": {"Points": [{"co": {"X": 1.0, "Y": -1.0}, "interpolation": 2}]}, "perspective_c1_y": {"Points": [{"co": {"X": 1.0, "Y": -1.0}, "interpolation": 2}]}, "perspective_c2_x": {"Points": [{"co": {"X": 1.0, "Y": -1.0}, "interpolation": 2}]}, "perspective_c2_y": {"Points": [{"co": {"X": 1.0, "Y": -1.0}, "interpolation": 2}]}, "perspective_c3_x": {"Points": [{"co": {"X": 1.0, "Y": -1.0}, "interpolation": 2}]}, "perspective_c3_y": {"Points": [{"co": {"X": 1.0, "Y": -1.0}, "interpolation": 2}]}, "perspective_c4_x": {"Points": [{"co": {"X": 1.0, "Y": -1.0}, "interpolation": 2}]}, "perspective_c4_y": {"Points": [{"co": {"X": 1.0, "Y": -1.0}, "interpolation": 2}]}, "position": 4.28, "reader": {"acodec": "aac", "audio_bit_rate": 256001, "audio_stream_index": 1, "audio_timebase": {"den": 48000, "num": 1}, "channel_layout": 3, "channels": 2, "display_ratio": {"den": 9, "num": 16}, "duration": 7.48799991607666, "file_size": "16365400", "fps": {"den": 170339, "num": 5107500}, "has_audio": true, "has_single_image": false, "has_video": true, "height": 1080, "interlaced_frame": false, "metadata": {"com.android.version": "8.0.0", "compatible_brands": "isommp42", "creation_time": "2019-03-12T16:54:43.000000Z", "handler_name": "SoundHandle", "language": "eng", "major_brand": "mp42", "minor_version": "0", "rotate": "270"}, "path": "../Downloads/rental/20190312_235435.mp4", "pixel_format": 0, "pixel_ratio": {"den": 1, "num": 1}, "sample_rate": 48000, "top_field_first": true, "type": "FFmpegReader", "vcodec": "h264", "video_bit_rate": 2165308, "video_length": "227", "video_stream_index": 0, "video_timebase": {"den": 90000, "num": 1}, "width": 1920}, "rotation": {"Points": [{"co": {"X": 1.0, "Y": 270.0}, "interpolation": 2}]}, "scale": 1, "scale_x": {"Points": [{"co": {"X": 1.0, "Y": 1.0}, "interpolation": 2}]}, "scale_y": {"Points": [{"co": {"X": 1.0, "Y": 1.0}, "interpolation": 2}]}, "shear_x": {"Points": [{"co": {"X": 1.0, "Y": 0.0}, "interpolation": 2}]}, "shear_y": {"Points": [{"co": {"X": 1.0, "Y": 0.0}, "interpolation": 2}]}, "start": 2.92, "time": {"Points": [{"co": {"X": 1.0, "Y": 1.0}, "interpolation": 2}]}, "volume": {"Points": [{"co": {"X": 1.0, "Y": 1.0}, "interpolation": 2}]}, "wave_color": {"alpha": {"Points": [{"co": {"X": 1.0, "Y": 255.0}, "handle_left": {"X": 0.5, "Y": 1.0}, "handle_right": {"X": 0.5, "Y": 0.0}, "handle_type": 0, "interpolation": 0}]}, "blue": {"Points": [{"co": {"X": 1.0, "Y": 255.0}, "handle_left": {"X": 0.5, "Y": 1.0}, "handle_right": {"X": 0.5, "Y": 0.0}, "handle_type": 0, "interpolation": 0}]}, "green": {"Points": [{"co": {"X": 1.0, "Y": 123.0}, "handle_left": {"X": 0.5, "Y": 1.0}, "handle_right": {"X": 0.5, "Y": 0.0}, "handle_type": 0, "interpolation": 0}]}, "red": {"Points": [{"co": {"X": 1.0, "Y": 0.0}, "handle_left": {"X": 0.5, "Y": 1.0}, "handle_right": {"X": 0.5, "Y": 0.0}, "handle_type": 0, "interpolation": 0}]}}, "waveform": false, "file_id": "6Q1HKONW84", "title": "20190312_235435.mp4", "image": "../.openshot_qt/thumbnail/381TRCWCCI-89.png", "id": "381TRCWCCI"}, {"alpha": {"Points": [{"co": {"X": 1.0, "Y": 1.0}, "interpolation": 2}]}, "anchor": 0, "channel_filter": {"Points": [{"co": {"X": 1.0, "Y": -1.0}, "interpolation": 2}]}, "channel_mapping": {"Points": [{"co": {"X": 1.0, "Y": -1.0}, "interpolation": 2}]}, "crop_height": {"Points": [{"co": {"X": 1.0, "Y": -1.0}, "interpolation": 2}]}, "crop_width": {"Points": [{"co": {"X": 1.0, "Y": -1.0}, "interpolation": 2}]}, "crop_x": {"Points": [{"co": {"X": 1.0, "Y": 0.0}, "interpolation": 2}]}, "crop_y": {"Points": [{"co": {"X": 1.0, "Y": 0.0}, "interpolation": 2}]}, "display": 0, "duration": 86400.0, "effects": [], "end": 0.92, "gravity": 4, "has_audio": {"Points": [{"co": {"X": 1.0, "Y": -1.0}, "interpolation": 2}]}, "has_video": {"Points": [{"co": {"X": 1.0, "Y": -1.0}, "interpolation": 2}]}, "id": "CUV34NAA8Q", "layer": 0, "location_x": {"Points": [{"co": {"X": 1.0, "Y": 0.0}, "interpolation": 2}]}, "location_y": {"Points": [{"co": {"X": 1.0, "Y": 0.0}, "interpolation": 2}]}, "mixing": 0, "perspective_c1_x": {"Points": [{"co": {"X": 1.0, "Y": -1.0}, "interpolation": 2}]}, "perspective_c1_y": {"Points": [{"co": {"X": 1.0, "Y": -1.0}, "interpolation": 2}]}, "perspective_c2_x": {"Points": [{"co": {"X": 1.0, "Y": -1.0}, "interpolation": 2}]}, "perspective_c2_y": {"Points": [{"co": {"X": 1.0, "Y": -1.0}, "interpolation": 2}]}, "perspective_c3_x": {"Points": [{"co": {"X": 1.0, "Y": -1.0}, "interpolation": 2}]}, "perspective_c3_y": {"Points": [{"co": {"X": 1.0, "Y": -1.0}, "interpolation": 2}]}, "perspective_c4_x": {"Points": [{"co": {"X": 1.0, "Y": -1.0}, "interpolation": 2}]}, "perspective_c4_y": {"Points": [{"co": {"X": 1.0, "Y": -1.0}, "interpolation": 2}]}, "position": 7.96, "reader": {"acodec": "", "audio_bit_rate": 0, "audio_stream_index": -1, "audio_timebase": {"den": 1, "num": 1}, "channel_layout": 4, "channels": 0, "display_ratio": {"den": 709, "num": 391}, "duration": 86400.0, "file_size": "1108876", "fps": {"den": 1, "num": 30}, "has_audio": false, "has_single_image": true, "has_video": true, "height": 709, "interlaced_frame": false, "metadata": {}, "path": "../Downloads/rental/wa4.png", "pixel_format": -1, "pixel_ratio": {"den": 1, "num": 1}, "sample_rate": 0, "top_field_first": true, "type": "QtImageReader", "vcodec": "", "video_bit_rate": 0, "video_length": "2592000", "video_stream_index": -1, "video_timebase": {"den": 30, "num": 1}, "width": 391}, "rotation": {"Points": [{"co": {"X": 1.0, "Y": 0.0}, "interpolation": 2}]}, "scale": 1, "scale_x": {"Points": [{"co": {"X": 1.0, "Y": 1.0}, "interpolation": 2}, {"co": {"X": 10, "Y": 2.5531914893617023}, "interpolation": 0}]}, "scale_y": {"Points": [{"co": {"X": 1.0, "Y": 1.0}, "interpolation": 2}, {"co": {"X": 10, "Y": 1.7169811320754718}, "interpolation": 0}]}, "shear_x": {"Points": [{"co": {"X": 1.0, "Y": 0.0}, "interpolation": 2}]}, "shear_y": {"Points": [{"co": {"X": 1.0, "Y": 0.0}, "interpolation": 2}]}, "start": 0, "time": {"Points": [{"co": {"X": 1.0, "Y": 1.0}, "interpolation": 2}]}, "volume": {"Points": [{"co": {"X": 1.0, "Y": 1.0}, "interpolation": 2}]}, "wave_color": {"alpha": {"Points": [{"co": {"X": 1.0, "Y": 255.0}, "handle_left": {"X": 0.5, "Y": 1.0}, "handle_right": {"X": 0.5, "Y": 0.0}, "handle_type": 0, "interpolation": 0}]}, "blue": {"Points": [{"co": {"X": 1.0, "Y": 255.0}, "handle_left": {"X": 0.5, "Y": 1.0}, "handle_right": {"X": 0.5, "Y": 0.0}, "handle_type": 0, "interpolation": 0}]}, "green": {"Points": [{"co": {"X": 1.0, "Y": 123.0}, "handle_left": {"X": 0.5, "Y": 1.0}, "handle_right": {"X": 0.5, "Y": 0.0}, "handle_type": 0, "interpolation": 0}]}, "red": {"Points": [{"co": {"X": 1.0, "Y": 0.0}, "handle_left": {"X": 0.5, "Y": 1.0}, "handle_right": {"X": 0.5, "Y": 0.0}, "handle_type": 0, "interpolation": 0}]}}, "waveform": false, "file_id": "V4UFWWPQWS", "title": "wa4.png", "image": "../.openshot_qt/thumbnail/V4UFWWPQWS.png"}, {"alpha": {"Points": [{"co": {"X": 1.0, "Y": 1.0}, "interpolation": 2}]}, "anchor": 0, "channel_filter": {"Points": [{"co": {"X": 1.0, "Y": -1.0}, "interpolation": 2}]}, "channel_mapping": {"Points": [{"co": {"X": 1.0, "Y": -1.0}, "interpolation": 2}]}, "crop_height": {"Points": [{"co": {"X": 1.0, "Y": -1.0}, "interpolation": 2}]}, "crop_width": {"Points": [{"co": {"X": 1.0, "Y": -1.0}, "interpolation": 2}]}, "crop_x": {"Points": [{"co": {"X": 1.0, "Y": 0.0}, "interpolation": 2}]}, "crop_y": {"Points": [{"co": {"X": 1.0, "Y": 0.0}, "interpolation": 2}]}, "display": 0, "duration": 86400.0, "effects": [], "end": 2.44, "gravity": 4, "has_audio": {"Points": [{"co": {"X": 1.0, "Y": -1.0}, "interpolation": 2}]}, "has_video": {"Points": [{"co": {"X": 1.0, "Y": -1.0}, "interpolation": 2}]}, "id": "2D1LAE8O93", "layer": 0, "location_x": {"Points": [{"co": {"X": 1.0, "Y": 0.0}, "interpolation": 2}, {"co": {"X": 17, "Y": -0.0026595744680851063}, "interpolation": 0}]}, "location_y": {"Points": [{"co": {"X": 1.0, "Y": 0.0}, "interpolation": 2}, {"co": {"X": 17, "Y": 0.02830188679245283}, "interpolation": 0}]}, "mixing": 0, "perspective_c1_x": {"Points": [{"co": {"X": 1.0, "Y": -1.0}, "interpolation": 2}]}, "perspective_c1_y": {"Points": [{"co": {"X": 1.0, "Y": -1.0}, "interpolation": 2}]}, "perspective_c2_x": {"Points": [{"co": {"X": 1.0, "Y": -1.0}, "interpolation": 2}]}, "perspective_c2_y": {"Points": [{"co": {"X": 1.0, "Y": -1.0}, "interpolation": 2}]}, "perspective_c3_x": {"Points": [{"co": {"X": 1.0, "Y": -1.0}, "interpolation": 2}]}, "perspective_c3_y": {"Points": [{"co": {"X": 1.0, "Y": -1.0}, "interpolation": 2}]}, "perspective_c4_x": {"Points": [{"co": {"X": 1.0, "Y": -1.0}, "interpolation": 2}]}, "perspective_c4_y": {"Points": [{"co": {"X": 1.0, "Y": -1.0}, "interpolation": 2}]}, "position": 5.52, "reader": {"acodec": "", "audio_bit_rate": 0, "audio_stream_index": -1, "audio_timebase": {"den": 1, "num": 1}, "channel_layout": 4, "channels": 0, "display_ratio": {"den": 709, "num": 391}, "duration": 86400.0, "file_size": "1108876", "fps": {"den": 1, "num": 30}, "has_audio": false, "has_single_image": true, "has_video": true, "height": 709, "interlaced_frame": false, "metadata": {}, "path": "../Downloads/rental/wa3.png", "pixel_format": -1, "pixel_ratio": {"den": 1, "num": 1}, "sample_rate": 0, "top_field_first": true, "type": "QtImageReader", "vcodec": "", "video_bit_rate": 0, "video_length": "2592000", "video_stream_index": -1, "video_timebase": {"den": 30, "num": 1}, "width": 391}, "rotation": {"Points": [{"co": {"X": 1.0, "Y": 0.0}, "interpolation": 2}]}, "scale": 1, "scale_x": {"Points": [{"co": {"X": 1.0, "Y": 1.0}, "interpolation": 2}, {"co": {"X": 17, "Y": 2.654255319148936}, "interpolation": 0}]}, "scale_y": {"Points": [{"co": {"X": 1.0, "Y": 1.0}, "interpolation": 2}, {"co": {"X": 17, "Y": 1.7830188679245282}, "interpolation": 0}]}, "shear_x": {"Points": [{"co": {"X": 1.0, "Y": 0.0}, "interpolation": 2}]}, "shear_y": {"Points": [{"co": {"X": 1.0, "Y": 0.0}, "interpolation": 2}]}, "start": 0, "time": {"Points": [{"co": {"X": 1.0, "Y": 1.0}, "interpolation": 2}]}, "volume": {"Points": [{"co": {"X": 1.0, "Y": 1.0}, "interpolation": 2}]}, "wave_color": {"alpha": {"Points": [{"co": {"X": 1.0, "Y": 255.0}, "handle_left": {"X": 0.5, "Y": 1.0}, "handle_right": {"X": 0.5, "Y": 0.0}, "handle_type": 0, "interpolation": 0}]}, "blue": {"Points": [{"co": {"X": 1.0, "Y": 255.0}, "handle_left": {"X": 0.5, "Y": 1.0}, "handle_right": {"X": 0.5, "Y": 0.0}, "handle_type": 0, "interpolation": 0}]}, "green": {"Points": [{"co": {"X": 1.0, "Y": 123.0}, "handle_left": {"X": 0.5, "Y": 1.0}, "handle_right": {"X": 0.5, "Y": 0.0}, "handle_type": 0, "interpolation": 0}]}, "red": {"Points": [{"co": {"X": 1.0, "Y": 0.0}, "handle_left": {"X": 0.5, "Y": 1.0}, "handle_right": {"X": 0.5, "Y": 0.0}, "handle_type": 0, "interpolation": 0}]}}, "waveform": false, "file_id": "H68DFQTNFM", "title": "wa3.png", "image": "../.openshot_qt/thumbnail/H68DFQTNFM.png"}, {"alpha": {"Points": [{"co": {"X": 1.0, "Y": 1.0}, "interpolation": 2}]}, "anchor": 0, "channel_filter": {"Points": [{"co": {"X": 1.0, "Y": -1.0}, "interpolation": 2}]}, "channel_mapping": {"Points": [{"co": {"X": 1.0, "Y": -1.0}, "interpolation": 2}]}, "crop_height": {"Points": [{"co": {"X": 1.0, "Y": -1.0}, "interpolation": 2}]}, "crop_width": {"Points": [{"co": {"X": 1.0, "Y": -1.0}, "interpolation": 2}]}, "crop_x": {"Points": [{"co": {"X": 1.0, "Y": 0.0}, "interpolation": 2}]}, "crop_y": {"Points": [{"co": {"X": 1.0, "Y": 0.0}, "interpolation": 2}]}, "display": 0, "duration": 7.48799991607666, "effects": [], "end": 5.840000000000001, "gravity": 4, "has_audio": {"Points": [{"co": {"X": 1.0, "Y": 0.0}, "interpolation": 2}]}, "has_video": {"Points": [{"co": {"X": 1.0, "Y": -1.0}, "interpolation": 2}]}, "layer": 0, "location_x": {"Points": [{"co": {"X": 1.0, "Y": 0.0}, "interpolation": 2}]}, "location_y": {"Points": [{"co": {"X": 1.0, "Y": 0.0}, "interpolation": 2}]}, "mixing": 0, "perspective_c1_x": {"Points": [{"co": {"X": 1.0, "Y": -1.0}, "interpolation": 2}]}, "perspective_c1_y": {"Points": [{"co": {"X": 1.0, "Y": -1.0}, "interpolation": 2}]}, "perspective_c2_x": {"Points": [{"co": {"X": 1.0, "Y": -1.0}, "interpolation": 2}]}, "perspective_c2_y": {"Points": [{"co": {"X": 1.0, "Y": -1.0}, "interpolation": 2}]}, "perspective_c3_x": {"Points": [{"co": {"X": 1.0, "Y": -1.0}, "interpolation": 2}]}, "perspective_c3_y": {"Points": [{"co": {"X": 1.0, "Y": -1.0}, "interpolation": 2}]}, "perspective_c4_x": {"Points": [{"co": {"X": 1.0, "Y": -1.0}, "interpolation": 2}]}, "perspective_c4_y": {"Points": [{"co": {"X": 1.0, "Y": -1.0}, "interpolation": 2}]}, "position": 8.88, "reader": {"acodec": "aac", "audio_bit_rate": 256001, "audio_stream_index": 1, "audio_timebase": {"den": 48000, "num": 1}, "channel_layout": 3, "channels": 2, "display_ratio": {"den": 9, "num": 16}, "duration": 7.48799991607666, "file_size": "16365400", "fps": {"den": 170339, "num": 5107500}, "has_audio": true, "has_single_image": false, "has_video": true, "height": 1080, "interlaced_frame": false, "metadata": {"com.android.version": "8.0.0", "compatible_brands": "isommp42", "creation_time": "2019-03-12T16:54:43.000000Z", "handler_name": "SoundHandle", "language": "eng", "major_brand": "mp42", "minor_version": "0", "rotate": "270"}, "path": "../Downloads/rental/20190312_235435.mp4", "pixel_format": 0, "pixel_ratio": {"den": 1, "num": 1}, "sample_rate": 48000, "top_field_first": true, "type": "FFmpegReader", "vcodec": "h264", "video_bit_rate": 2165308, "video_length": "227", "video_stream_index": 0, "video_timebase": {"den": 90000, "num": 1}, "width": 1920}, "rotation": {"Points": [{"co": {"X": 1.0, "Y": 270.0}, "interpolation": 2}]}, "scale": 1, "scale_x": {"Points": [{"co": {"X": 1.0, "Y": 1.0}, "interpolation": 2}]}, "scale_y": {"Points": [{"co": {"X": 1.0, "Y": 1.0}, "interpolation": 2}]}, "shear_x": {"Points": [{"co": {"X": 1.0, "Y": 0.0}, "interpolation": 2}]}, "shear_y": {"Points": [{"co": {"X": 1.0, "Y": 0.0}, "interpolation": 2}]}, "start": 5.24, "time": {"Points": [{"co": {"X": 1.0, "Y": 1.0}, "interpolation": 2}]}, "volume": {"Points": [{"co": {"X": 1.0, "Y": 1.0}, "interpolation": 2}]}, "wave_color": {"alpha": {"Points": [{"co": {"X": 1.0, "Y": 255.0}, "handle_left": {"X": 0.5, "Y": 1.0}, "handle_right": {"X": 0.5, "Y": 0.0}, "handle_type": 0, "interpolation": 0}]}, "blue": {"Points": [{"co": {"X": 1.0, "Y": 255.0}, "handle_left": {"X": 0.5, "Y": 1.0}, "handle_right": {"X": 0.5, "Y": 0.0}, "handle_type": 0, "interpolation": 0}]}, "green": {"Points": [{"co": {"X": 1.0, "Y": 123.0}, "handle_left": {"X": 0.5, "Y": 1.0}, "handle_right": {"X": 0.5, "Y": 0.0}, "handle_type": 0, "interpolation": 0}]}, "red": {"Points": [{"co": {"X": 1.0, "Y": 0.0}, "handle_left": {"X": 0.5, "Y": 1.0}, "handle_right": {"X": 0.5, "Y": 0.0}, "handle_type": 0, "interpolation": 0}]}}, "waveform": false, "file_id": "6Q1HKONW84", "title": "20190312_235435.mp4", "image": "../.openshot_qt/thumbnail/B9FGZPNP6T-158.png", "id": "B9FGZPNP6T"}, {"alpha": {"Points": [{"co": {"X": 1.0, "Y": 1.0}, "interpolation": 2}]}, "anchor": 0, "channel_filter": {"Points": [{"co": {"X": 1.0, "Y": -1.0}, "interpolation": 2}]}, "channel_mapping": {"Points": [{"co": {"X": 1.0, "Y": -1.0}, "interpolation": 2}]}, "crop_height": {"Points": [{"co": {"X": 1.0, "Y": -1.0}, "interpolation": 2}]}, "crop_width": {"Points": [{"co": {"X": 1.0, "Y": -1.0}, "interpolation": 2}]}, "crop_x": {"Points": [{"co": {"X": 1.0, "Y": 0.0}, "interpolation": 2}]}, "crop_y": {"Points": [{"co": {"X": 1.0, "Y": 0.0}, "interpolation": 2}]}, "display": 0, "duration": 7.48799991607666, "effects": [{"class_name": "Saturation", "description": "Adjust the color saturation.", "duration": 0.0, "end": 0.0, "has_audio": false, "has_video": true, "id": "7T8FPZ8G34", "layer": 0, "name": "Color Saturation", "order": 0, "position": 0.0, "saturation": {"Points": [{"co": {"X": 1.0, "Y": 1.0}, "interpolation": 2}, {"co": {"X": 158, "Y": 0.0}, "interpolation": 1}]}, "short_name": "", "start": 0.0, "type": "Saturation"}], "end": 6.8, "gravity": 4, "has_audio": {"Points": [{"co": {"X": 1.0, "Y": 0.0}, "interpolation": 2}]}, "has_video": {"Points": [{"co": {"X": 1.0, "Y": -1.0}, "interpolation": 2}]}, "layer": 0, "location_x": {"Points": [{"co": {"X": 1.0, "Y": 0.0}, "interpolation": 2}]}, "location_y": {"Points": [{"co": {"X": 1.0, "Y": 0.0}, "interpolation": 2}]}, "mixing": 0, "perspective_c1_x": {"Points": [{"co": {"X": 1.0, "Y": -1.0}, "interpolation": 2}]}, "perspective_c1_y": {"Points": [{"co": {"X": 1.0, "Y": -1.0}, "interpolation": 2}]}, "perspective_c2_x": {"Points": [{"co": {"X": 1.0, "Y": -1.0}, "interpolation": 2}]}, "perspective_c2_y": {"Points": [{"co": {"X": 1.0, "Y": -1.0}, "interpolation": 2}]}, "perspective_c3_x": {"Points": [{"co": {"X": 1.0, "Y": -1.0}, "interpolation": 2}]}, "perspective_c3_y": {"Points": [{"co": {"X": 1.0, "Y": -1.0}, "interpolation": 2}]}, "perspective_c4_x": {"Points": [{"co": {"X": 1.0, "Y": -1.0}, "interpolation": 2}]}, "perspective_c4_y": {"Points": [{"co": {"X": 1.0, "Y": -1.0}, "interpolation": 2}]}, "position": 9.48, "reader": {"acodec": "aac", "audio_bit_rate": 256001, "audio_stream_index": 1, "audio_timebase": {"den": 48000, "num": 1}, "channel_layout": 3, "channels": 2, "display_ratio": {"den": 9, "num": 16}, "duration": 7.48799991607666, "file_size": "16365400", "fps": {"den": 170339, "num": 5107500}, "has_audio": true, "has_single_image": false, "has_video": true, "height": 1080, "interlaced_frame": false, "metadata": {"com.android.version": "8.0.0", "compatible_brands": "isommp42", "creation_time": "2019-03-12T16:54:43.000000Z", "handler_name": "SoundHandle", "language": "eng", "major_brand": "mp42", "minor_version": "0", "rotate": "270"}, "path": "../Downloads/rental/20190312_235435.mp4", "pixel_format": 0, "pixel_ratio": {"den": 1, "num": 1}, "sample_rate": 48000, "top_field_first": true, "type": "FFmpegReader", "vcodec": "h264", "video_bit_rate": 2165308, "video_length": "227", "video_stream_index": 0, "video_timebase": {"den": 90000, "num": 1}, "width": 1920}, "rotation": {"Points": [{"co": {"X": 1.0, "Y": 270.0}, "interpolation": 2}]}, "scale": 1, "scale_x": {"Points": [{"co": {"X": 1.0, "Y": 1.0}, "interpolation": 2}]}, "scale_y": {"Points": [{"co": {"X": 1.0, "Y": 1.0}, "interpolation": 2}]}, "shear_x": {"Points": [{"co": {"X": 1.0, "Y": 0.0}, "interpolation": 2}]}, "shear_y": {"Points": [{"co": {"X": 1.0, "Y": 0.0}, "interpolation": 2}]}, "start": 5.92, "time": {"Points": [{"co": {"X": 1.0, "Y": 1.0}, "interpolation": 2}]}, "volume": {"Points": [{"co": {"X": 1.0, "Y": 1.0}, "interpolation": 2}]}, "wave_color": {"alpha": {"Points": [{"co": {"X": 1.0, "Y": 255.0}, "handle_left": {"X": 0.5, "Y": 1.0}, "handle_right": {"X": 0.5, "Y": 0.0}, "handle_type": 0, "interpolation": 0}]}, "blue": {"Points": [{"co": {"X": 1.0, "Y": 255.0}, "handle_left": {"X": 0.5, "Y": 1.0}, "handle_right": {"X": 0.5, "Y": 0.0}, "handle_type": 0, "interpolation": 0}]}, "green": {"Points": [{"co": {"X": 1.0, "Y": 123.0}, "handle_left": {"X": 0.5, "Y": 1.0}, "handle_right": {"X": 0.5, "Y": 0.0}, "handle_type": 0, "interpolation": 0}]}, "red": {"Points": [{"co": {"X": 1.0, "Y": 0.0}, "handle_left": {"X": 0.5, "Y": 1.0}, "handle_right": {"X": 0.5, "Y": 0.0}, "handle_type": 0, "interpolation": 0}]}}, "waveform": false, "file_id": "6Q1HKONW84", "title": "20190312_235435.mp4", "image": "../.openshot_qt/thumbnail/PBQ4EE9F4S-179.png", "id": "PBQ4EE9F4S"}, {"alpha": {"Points": [{"co": {"X": 1.0, "Y": 1.0}, "interpolation": 2}]}, "anchor": 0, "channel_filter": {"Points": [{"co": {"X": 1.0, "Y": -1.0}, "interpolation": 2}]}, "channel_mapping": {"Points": [{"co": {"X": 1.0, "Y": -1.0}, "interpolation": 2}]}, "crop_height": {"Points": [{"co": {"X": 1.0, "Y": -1.0}, "interpolation": 2}]}, "crop_width": {"Points": [{"co": {"X": 1.0, "Y": -1.0}, "interpolation": 2}]}, "crop_x": {"Points": [{"co": {"X": 1.0, "Y": 0.0}, "interpolation": 2}]}, "crop_y": {"Points": [{"co": {"X": 1.0, "Y": 0.0}, "interpolation": 2}]}, "display": 0, "duration": 280.0559997558594, "effects": [], "end": 94.52, "gravity": 4, "has_audio": {"Points": [{"co": {"X": 1.0, "Y": -1.0}, "interpolation": 2}]}, "has_video": {"Points": [{"co": {"X": 1.0, "Y": -1.0}, "interpolation": 2}]}, "id": "FAXXNCRSNI", "layer": 1, "location_x": {"Points": [{"co": {"X": 1.0, "Y": 0.0}, "interpolation": 2}]}, "location_y": {"Points": [{"co": {"X": 1.0, "Y": 0.0}, "interpolation": 2}]}, "mixing": 0, "perspective_c1_x": {"Points": [{"co": {"X": 1.0, "Y": -1.0}, "interpolation": 2}]}, "perspective_c1_y": {"Points": [{"co": {"X": 1.0, "Y": -1.0}, "interpolation": 2}]}, "perspective_c2_x": {"Points": [{"co": {"X": 1.0, "Y": -1.0}, "interpolation": 2}]}, "perspective_c2_y": {"Points": [{"co": {"X": 1.0, "Y": -1.0}, "interpolation": 2}]}, "perspective_c3_x": {"Points": [{"co": {"X": 1.0, "Y": -1.0}, "interpolation": 2}]}, "perspective_c3_y": {"Points": [{"co": {"X": 1.0, "Y": -1.0}, "interpolation": 2}]}, "perspective_c4_x": {"Points": [{"co": {"X": 1.0, "Y": -1.0}, "interpolation": 2}]}, "perspective_c4_y": {"Points": [{"co": {"X": 1.0, "Y": -1.0}, "interpolation": 2}]}, "position": 9.4, "reader": {"acodec": "mp3float", "audio_bit_rate": 118231, "audio_stream_index": 0, "audio_timebase": {"den": 14112000, "num": 1}, "channel_layout": 3, "channels": 2, "display_ratio": {"den": 1, "num": 1}, "duration": 280.0559997558594, "file_size": "4138941", "fps": {"den": 1, "num": 24}, "has_audio": true, "has_single_image": false, "has_video": false, "height": 480, "interlaced_frame": false, "metadata": {"encoder": "Lavf58.20.100"}, "path": "../Videos/kimino.mp3", "pixel_format": -1, "pixel_ratio": {"den": 1, "num": 1}, "sample_rate": 48000, "top_field_first": true, "type": "FFmpegReader", "vcodec": "", "video_bit_rate": 0, "video_length": "6721", "video_stream_index": -1, "video_timebase": {"den": 24, "num": 1}, "width": 720}, "rotation": {"Points": [{"co": {"X": 1.0, "Y": 0.0}, "interpolation": 2}]}, "scale": 1, "scale_x": {"Points": [{"co": {"X": 1.0, "Y": 1.0}, "interpolation": 2}]}, "scale_y": {"Points": [{"co": {"X": 1.0, "Y": 1.0}, "interpolation": 2}]}, "shear_x": {"Points": [{"co": {"X": 1.0, "Y": 0.0}, "interpolation": 2}]}, "shear_y": {"Points": [{"co": {"X": 1.0, "Y": 0.0}, "interpolation": 2}]}, "start": 78.84, "time": {"Points": [{"co": {"X": 1.0, "Y": 1.0}, "interpolation": 2}]}, "volume": {"Points": [{"co": {"X": 1.0, "Y": 1.0}, "interpolation": 2}]}, "wave_color": {"alpha": {"Points": [{"co": {"X": 1.0, "Y": 255.0}, "handle_left": {"X": 0.5, "Y": 1.0}, "handle_right": {"X": 0.5, "Y": 0.0}, "handle_type": 0, "interpolation": 0}]}, "blue": {"Points": [{"co": {"X": 1.0, "Y": 255.0}, "handle_left": {"X": 0.5, "Y": 1.0}, "handle_right": {"X": 0.5, "Y": 0.0}, "handle_type": 0, "interpolation": 0}]}, "green": {"Points": [{"co": {"X": 1.0, "Y": 123.0}, "handle_left": {"X": 0.5, "Y": 1.0}, "handle_right": {"X": 0.5, "Y": 0.0}, "handle_type": 0, "interpolation": 0}]}, "red": {"Points": [{"co": {"X": 1.0, "Y": 0.0}, "handle_left": {"X": 0.5, "Y": 1.0}, "handle_right": {"X": 0.5, "Y": 0.0}, "handle_type": 0, "interpolation": 0}]}}, "waveform": false, "file_id": "JCL0SJYIR0", "title": "kimino.mp3", "image": "../../../usr/lib/python3.7/site-packages/openshot_qt/images/AudioThumbnail.png"}, {"alpha": {"Points": [{"co": {"X": 1.0, "Y": 1.0}, "interpolation": 2}]}, "anchor": 0, "channel_filter": {"Points": [{"co": {"X": 1.0, "Y": -1.0}, "interpolation": 2}]}, "channel_mapping": {"Points": [{"co": {"X": 1.0, "Y": -1.0}, "interpolation": 2}]}, "crop_height": {"Points": [{"co": {"X": 1.0, "Y": -1.0}, "interpolation": 2}]}, "crop_width": {"Points": [{"co": {"X": 1.0, "Y": -1.0}, "interpolation": 2}]}, "crop_x": {"Points": [{"co": {"X": 1.0, "Y": 0.0}, "interpolation": 2}]}, "crop_y": {"Points": [{"co": {"X": 1.0, "Y": 0.0}, "interpolation": 2}]}, "display": 0, "duration": 8.853333473205566, "effects": [{"class_name": "Saturation", "description": "Adjust the color saturation.", "duration": 0.0, "end": 0.0, "has_audio": false, "has_video": true, "id": "WJ1BI4GK6X", "layer": 0, "name": "Color Saturation", "order": 0, "position": 0.0, "saturation": {"Points": [{"co": {"X": 1.0, "Y": 1.0}, "interpolation": 2}, {"co": {"X": 26, "Y": 0.0}, "interpolation": 1}]}, "short_name": "", "start": 0.0, "type": "Saturation"}], "end": 4.84, "gravity": 4, "has_audio": {"Points": [{"co": {"X": 1.0, "Y": 0.0}, "interpolation": 2}]}, "has_video": {"Points": [{"co": {"X": 1.0, "Y": -1.0}, "interpolation": 2}]}, "id": "9U5V3I4CUK", "layer": 0, "location_x": {"Points": [{"co": {"X": 1.0, "Y": 0.0}, "interpolation": 2}]}, "location_y": {"Points": [{"co": {"X": 1.0, "Y": 0.0}, "interpolation": 2}]}, "mixing": 0, "perspective_c1_x": {"Points": [{"co": {"X": 1.0, "Y": -1.0}, "interpolation": 2}]}, "perspective_c1_y": {"Points": [{"co": {"X": 1.0, "Y": -1.0}, "interpolation": 2}]}, "perspective_c2_x": {"Points": [{"co": {"X": 1.0, "Y": -1.0}, "interpolation": 2}]}, "perspective_c2_y": {"Points": [{"co": {"X": 1.0, "Y": -1.0}, "interpolation": 2}]}, "perspective_c3_x": {"Points": [{"co": {"X": 1.0, "Y": -1.0}, "interpolation": 2}]}, "perspective_c3_y": {"Points": [{"co": {"X": 1.0, "Y": -1.0}, "interpolation": 2}]}, "perspective_c4_x": {"Points": [{"co": {"X": 1.0, "Y": -1.0}, "interpolation": 2}]}, "perspective_c4_y": {"Points": [{"co": {"X": 1.0, "Y": -1.0}, "interpolation": 2}]}, "position": 10.36, "reader": {"acodec": "aac", "audio_bit_rate": 256000, "audio_stream_index": 1, "audio_timebase": {"den": 48000, "num": 1}, "channel_layout": 3, "channels": 2, "display_ratio": {"den": 9, "num": 16}, "duration": 8.853333473205566, "file_size": "19218271", "fps": {"den": 14829, "num": 445000}, "has_audio": true, "has_single_image": false, "has_video": true, "height": 1080, "interlaced_frame": false, "metadata": {"com.android.version": "8.0.0", "compatible_brands": "isommp42", "creation_time": "2019-03-12T16:56:12.000000Z", "handler_name": "SoundHandle", "language": "eng", "major_brand": "mp42", "minor_version": "0", "rotate": "180"}, "path": "../Downloads/rental/20190312_235602.mp4", "pixel_format": 0, "pixel_ratio": {"den": 1, "num": 1}, "sample_rate": 48000, "top_field_first": true, "type": "FFmpegReader", "vcodec": "h264", "video_bit_rate": 2161785, "video_length": "267", "video_stream_index": 0, "video_timebase": {"den": 90000, "num": 1}, "width": 1920}, "rotation": {"Points": [{"co": {"X": 1.0, "Y": 180.0}, "interpolation": 2}]}, "scale": 1, "scale_x": {"Points": [{"co": {"X": 1.0, "Y": 1.0}, "interpolation": 2}]}, "scale_y": {"Points": [{"co": {"X": 1.0, "Y": 1.0}, "interpolation": 2}]}, "shear_x": {"Points": [{"co": {"X": 1.0, "Y": 0.0}, "interpolation": 2}]}, "shear_y": {"Points": [{"co": {"X": 1.0, "Y": 0.0}, "interpolation": 2}]}, "start": 1.44, "time": {"Points": [{"co": {"X": 1.0, "Y": 1.0}, "interpolation": 2}]}, "volume": {"Points": [{"co": {"X": 1.0, "Y": 1.0}, "interpolation": 2}]}, "wave_color": {"alpha": {"Points": [{"co": {"X": 1.0, "Y": 255.0}, "handle_left": {"X": 0.5, "Y": 1.0}, "handle_right": {"X": 0.5, "Y": 0.0}, "handle_type": 0, "interpolation": 0}]}, "blue": {"Points": [{"co": {"X": 1.0, "Y": 255.0}, "handle_left": {"X": 0.5, "Y": 1.0}, "handle_right": {"X": 0.5, "Y": 0.0}, "handle_type": 0, "interpolation": 0}]}, "green": {"Points": [{"co": {"X": 1.0, "Y": 123.0}, "handle_left": {"X": 0.5, "Y": 1.0}, "handle_right": {"X": 0.5, "Y": 0.0}, "handle_type": 0, "interpolation": 0}]}, "red": {"Points": [{"co": {"X": 1.0, "Y": 0.0}, "handle_left": {"X": 0.5, "Y": 1.0}, "handle_right": {"X": 0.5, "Y": 0.0}, "handle_type": 0, "interpolation": 0}]}}, "waveform": false, "file_id": "JWZ5I01NPS", "title": "20190312_235602.mp4", "image": "../.openshot_qt/thumbnail/JWZ5I01NPS.png"}, {"alpha": {"Points": [{"co": {"X": 1.0, "Y": 1.0}, "interpolation": 2}]}, "anchor": 0, "channel_filter": {"Points": [{"co": {"X": 1.0, "Y": -1.0}, "interpolation": 2}]}, "channel_mapping": {"Points": [{"co": {"X": 1.0, "Y": -1.0}, "interpolation": 2}]}, "crop_height": {"Points": [{"co": {"X": 1.0, "Y": -1.0}, "interpolation": 2}]}, "crop_width": {"Points": [{"co": {"X": 1.0, "Y": -1.0}, "interpolation": 2}]}, "crop_x": {"Points": [{"co": {"X": 1.0, "Y": 0.0}, "interpolation": 2}]}, "crop_y": {"Points": [{"co": {"X": 1.0, "Y": 0.0}, "interpolation": 2}]}, "display": 0, "duration": 13.909333229064941, "effects": [{"class_name": "Saturation", "description": "Adjust the color saturation.", "duration": 0.0, "end": 0.0, "has_audio": false, "has_video": true, "id": "TJUHXG13GY", "layer": 0, "name": "Color Saturation", "order": 0, "position": 0.0, "saturation": {"Points": [{"co": {"X": 1.0, "Y": 1.0}, "interpolation": 2}, {"co": {"X": 64, "Y": 0.0}, "interpolation": 1}, {"co": {"X": 4, "Y": 0.0}, "interpolation": 1}]}, "short_name": "", "start": 0.0, "type": "Saturation"}], "end": 3.24, "gravity": 4, "has_audio": {"Points": [{"co": {"X": 1.0, "Y": 0.0}, "interpolation": 2}]}, "has_video": {"Points": [{"co": {"X": 1.0, "Y": -1.0}, "interpolation": 2}]}, "id": "P1Z57G7FQC", "layer": 0, "location_x": {"Points": [{"co": {"X": 1.0, "Y": 0.0}, "interpolation": 2}]}, "location_y": {"Points": [{"co": {"X": 1.0, "Y": 0.0}, "interpolation": 2}]}, "mixing": 0, "perspective_c1_x": {"Points": [{"co": {"X": 1.0, "Y": -1.0}, "interpolation": 2}]}, "perspective_c1_y": {"Points": [{"co": {"X": 1.0, "Y": -1.0}, "interpolation": 2}]}, "perspective_c2_x": {"Points": [{"co": {"X": 1.0, "Y": -1.0}, "interpolation": 2}]}, "perspective_c2_y": {"Points": [{"co": {"X": 1.0, "Y": -1.0}, "interpolation": 2}]}, "perspective_c3_x": {"Points": [{"co": {"X": 1.0, "Y": -1.0}, "interpolation": 2}]}, "perspective_c3_y": {"Points": [{"co": {"X": 1.0, "Y": -1.0}, "interpolation": 2}]}, "perspective_c4_x": {"Points": [{"co": {"X": 1.0, "Y": -1.0}, "interpolation": 2}]}, "perspective_c4_y": {"Points": [{"co": {"X": 1.0, "Y": -1.0}, "interpolation": 2}]}, "position": 13.76, "reader": {"acodec": "aac", "audio_bit_rate": 256000, "audio_stream_index": 1, "audio_timebase": {"den": 48000, "num": 1}, "channel_layout": 3, "channels": 2, "display_ratio": {"den": 9, "num": 16}, "duration": 13.909333229064941, "file_size": "30069816", "fps": {"den": 39329, "num": 1175625}, "has_audio": true, "has_single_image": false, "has_video": true, "height": 1080, "interlaced_frame": false, "metadata": {"com.android.version": "8.0.0", "compatible_brands": "isommp42", "creation_time": "2019-03-12T16:57:05.000000Z", "handler_name": "SoundHandle", "language": "eng", "major_brand": "mp42", "minor_version": "0", "rotate": "270"}, "path": "../Downloads/rental/20190312_235650.mp4", "pixel_format": 0, "pixel_ratio": {"den": 1, "num": 1}, "sample_rate": 48000, "top_field_first": true, "type": "FFmpegReader", "vcodec": "h264", "video_bit_rate": 2150301, "video_length": "418", "video_stream_index": 0, "video_timebase": {"den": 90000, "num": 1}, "width": 1920}, "rotation": {"Points": [{"co": {"X": 1.0, "Y": 270.0}, "interpolation": 2}]}, "scale": 1, "scale_x": {"Points": [{"co": {"X": 1.0, "Y": 1.0}, "interpolation": 2}]}, "scale_y": {"Points": [{"co": {"X": 1.0, "Y": 1.0}, "interpolation": 2}]}, "shear_x": {"Points": [{"co": {"X": 1.0, "Y": 0.0}, "interpolation": 2}]}, "shear_y": {"Points": [{"co": {"X": 1.0, "Y": 0.0}, "interpolation": 2}]}, "start": 0, "time": {"Points": [{"co": {"X": 1.0, "Y": 1.0}, "interpolation": 2}]}, "volume": {"Points": [{"co": {"X": 1.0, "Y": 1.0}, "interpolation": 2}]}, "wave_color": {"alpha": {"Points": [{"co": {"X": 1.0, "Y": 255.0}, "handle_left": {"X": 0.5, "Y": 1.0}, "handle_right": {"X": 0.5, "Y": 0.0}, "handle_type": 0, "interpolation": 0}]}, "blue": {"Points": [{"co": {"X": 1.0, "Y": 255.0}, "handle_left": {"X": 0.5, "Y": 1.0}, "handle_right": {"X": 0.5, "Y": 0.0}, "handle_type": 0, "interpolation": 0}]}, "green": {"Points": [{"co": {"X": 1.0, "Y": 123.0}, "handle_left": {"X": 0.5, "Y": 1.0}, "handle_right": {"X": 0.5, "Y": 0.0}, "handle_type": 0, "interpolation": 0}]}, "red": {"Points": [{"co": {"X": 1.0, "Y": 0.0}, "handle_left": {"X": 0.5, "Y": 1.0}, "handle_right": {"X": 0.5, "Y": 0.0}, "handle_type": 0, "interpolation": 0}]}}, "waveform": false, "file_id": "VHKCGJMK2Y", "title": "20190312_235650.mp4", "image": "../.openshot_qt/thumbnail/VHKCGJMK2Y.png"}, {"alpha": {"Points": [{"co": {"X": 1.0, "Y": 1.0}, "interpolation": 2}]}, "anchor": 0, "channel_filter": {"Points": [{"co": {"X": 1.0, "Y": -1.0}, "interpolation": 2}]}, "channel_mapping": {"Points": [{"co": {"X": 1.0, "Y": -1.0}, "interpolation": 2}]}, "crop_height": {"Points": [{"co": {"X": 1.0, "Y": -1.0}, "interpolation": 2}]}, "crop_width": {"Points": [{"co": {"X": 1.0, "Y": -1.0}, "interpolation": 2}]}, "crop_x": {"Points": [{"co": {"X": 1.0, "Y": 0.0}, "interpolation": 2}]}, "crop_y": {"Points": [{"co": {"X": 1.0, "Y": 0.0}, "interpolation": 2}]}, "display": 0, "duration": 13.909333229064941, "effects": [{"class_name": "Saturation", "description": "Adjust the color saturation.", "duration": 0.0, "end": 0.0, "has_audio": false, "has_video": true, "id": "TJUHXG13GY", "layer": 0, "name": "Color Saturation", "order": 0, "position": 0.0, "saturation": {"Points": [{"co": {"X": 1.0, "Y": 1.0}, "interpolation": 2}, {"co": {"X": 64, "Y": 0.0}, "interpolation": 1}, {"co": {"X": 4, "Y": 0.0}, "interpolation": 1}]}, "short_name": "", "start": 0.0, "type": "Saturation"}], "end": 10.88, "gravity": 4, "has_audio": {"Points": [{"co": {"X": 1.0, "Y": 0.0}, "interpolation": 2}]}, "has_video": {"Points": [{"co": {"X": 1.0, "Y": -1.0}, "interpolation": 2}]}, "layer": 0, "location_x": {"Points": [{"co": {"X": 1.0, "Y": 0.0}, "interpolation": 2}]}, "location_y": {"Points": [{"co": {"X": 1.0, "Y": 0.0}, "interpolation": 2}]}, "mixing": 0, "perspective_c1_x": {"Points": [{"co": {"X": 1.0, "Y": -1.0}, "interpolation": 2}]}, "perspective_c1_y": {"Points": [{"co": {"X": 1.0, "Y": -1.0}, "interpolation": 2}]}, "perspective_c2_x": {"Points": [{"co": {"X": 1.0, "Y": -1.0}, "interpolation": 2}]}, "perspective_c2_y": {"Points": [{"co": {"X": 1.0, "Y": -1.0}, "interpolation": 2}]}, "perspective_c3_x": {"Points": [{"co": {"X": 1.0, "Y": -1.0}, "interpolation": 2}]}, "perspective_c3_y": {"Points": [{"co": {"X": 1.0, "Y": -1.0}, "interpolation": 2}]}, "perspective_c4_x": {"Points": [{"co": {"X": 1.0, "Y": -1.0}, "interpolation": 2}]}, "perspective_c4_y": {"Points": [{"co": {"X": 1.0, "Y": -1.0}, "interpolation": 2}]}, "position": 17, "reader": {"acodec": "aac", "audio_bit_rate": 256000, "audio_stream_index": 1, "audio_timebase": {"den": 48000, "num": 1}, "channel_layout": 3, "channels": 2, "display_ratio": {"den": 9, "num": 16}, "duration": 13.909333229064941, "file_size": "30069816", "fps": {"den": 39329, "num": 1175625}, "has_audio": true, "has_single_image": false, "has_video": true, "height": 1080, "interlaced_frame": false, "metadata": {"com.android.version": "8.0.0", "compatible_brands": "isommp42", "creation_time": "2019-03-12T16:57:05.000000Z", "handler_name": "SoundHandle", "language": "eng", "major_brand": "mp42", "minor_version": "0", "rotate": "270"}, "path": "../Downloads/rental/20190312_235650.mp4", "pixel_format": 0, "pixel_ratio": {"den": 1, "num": 1}, "sample_rate": 48000, "top_field_first": true, "type": "FFmpegReader", "vcodec": "h264", "video_bit_rate": 2150301, "video_length": "418", "video_stream_index": 0, "video_timebase": {"den": 90000, "num": 1}, "width": 1920}, "rotation": {"Points": [{"co": {"X": 1.0, "Y": 270.0}, "interpolation": 2}]}, "scale": 1, "scale_x": {"Points": [{"co": {"X": 1.0, "Y": 1.0}, "interpolation": 2}]}, "scale_y": {"Points": [{"co": {"X": 1.0, "Y": 1.0}, "interpolation": 2}]}, "shear_x": {"Points": [{"co": {"X": 1.0, "Y": 0.0}, "interpolation": 2}]}, "shear_y": {"Points": [{"co": {"X": 1.0, "Y": 0.0}, "interpolation": 2}]}, "start": 7.84, "time": {"Points": [{"co": {"X": 1.0, "Y": 1.0}, "interpolation": 2}]}, "volume": {"Points": [{"co": {"X": 1.0, "Y": 1.0}, "interpolation": 2}]}, "wave_color": {"alpha": {"Points": [{"co": {"X": 1.0, "Y": 255.0}, "handle_left": {"X": 0.5, "Y": 1.0}, "handle_right": {"X": 0.5, "Y": 0.0}, "handle_type": 0, "interpolation": 0}]}, "blue": {"Points": [{"co": {"X": 1.0, "Y": 255.0}, "handle_left": {"X": 0.5, "Y": 1.0}, "handle_right": {"X": 0.5, "Y": 0.0}, "handle_type": 0, "interpolation": 0}]}, "green": {"Points": [{"co": {"X": 1.0, "Y": 123.0}, "handle_left": {"X": 0.5, "Y": 1.0}, "handle_right": {"X": 0.5, "Y": 0.0}, "handle_type": 0, "interpolation": 0}]}, "red": {"Points": [{"co": {"X": 1.0, "Y": 0.0}, "handle_left": {"X": 0.5, "Y": 1.0}, "handle_right": {"X": 0.5, "Y": 0.0}, "handle_type": 0, "interpolation": 0}]}}, "waveform": false, "file_id": "VHKCGJMK2Y", "title": "20190312_235650.mp4", "image": "../.openshot_qt/thumbnail/5WA3486A0N-235.png", "id": "5WA3486A0N"}, {"alpha": {"Points": [{"co": {"X": 1.0, "Y": 1.0}, "interpolation": 2}]}, "anchor": 0, "channel_filter": {"Points": [{"co": {"X": 1.0, "Y": -1.0}, "interpolation": 2}]}, "channel_mapping": {"Points": [{"co": {"X": 1.0, "Y": -1.0}, "interpolation": 2}]}, "crop_height": {"Points": [{"co": {"X": 1.0, "Y": -1.0}, "interpolation": 2}]}, "crop_width": {"Points": [{"co": {"X": 1.0, "Y": -1.0}, "interpolation": 2}]}, "crop_x": {"Points": [{"co": {"X": 1.0, "Y": 0.0}, "interpolation": 2}]}, "crop_y": {"Points": [{"co": {"X": 1.0, "Y": 0.0}, "interpolation": 2}]}, "display": 0, "duration": 10.773333549499512, "effects": [{"class_name": "Saturation", "description": "Adjust the color saturation.", "duration": 0.0, "end": 0.0, "has_audio": false, "has_video": true, "id": "1ZUT2T3RLC", "layer": 0, "name": "Color Saturation", "order": 0, "position": 0.0, "saturation": {"Points": [{"co": {"X": 1.0, "Y": 1.0}, "interpolation": 2}, {"co": {"X": 124, "Y": 0.0}, "interpolation": 1}]}, "short_name": "", "start": 0.0, "type": "Saturation"}], "end": 9.92, "gravity": 4, "has_audio": {"Points": [{"co": {"X": 1.0, "Y": -1.0}, "interpolation": 2}]}, "has_video": {"Points": [{"co": {"X": 1.0, "Y": -1.0}, "interpolation": 2}]}, "layer": 0, "location_x": {"Points": [{"co": {"X": 1.0, "Y": 0.0}, "interpolation": 2}]}, "location_y": {"Points": [{"co": {"X": 1.0, "Y": 0.0}, "interpolation": 2}]}, "mixing": 0, "perspective_c1_x": {"Points": [{"co": {"X": 1.0, "Y": -1.0}, "interpolation": 2}]}, "perspective_c1_y": {"Points": [{"co": {"X": 1.0, "Y": -1.0}, "interpolation": 2}]}, "perspective_c2_x": {"Points": [{"co": {"X": 1.0, "Y": -1.0}, "interpolation": 2}]}, "perspective_c2_y": {"Points": [{"co": {"X": 1.0, "Y": -1.0}, "interpolation": 2}]}, "perspective_c3_x": {"Points": [{"co": {"X": 1.0, "Y": -1.0}, "interpolation": 2}]}, "perspective_c3_y": {"Points": [{"co": {"X": 1.0, "Y": -1.0}, "interpolation": 2}]}, "perspective_c4_x": {"Points": [{"co": {"X": 1.0, "Y": -1.0}, "interpolation": 2}]}, "perspective_c4_y": {"Points": [{"co": {"X": 1.0, "Y": -1.0}, "interpolation": 2}]}, "position": 20.04, "reader": {"acodec": "aac", "audio_bit_rate": 256041, "audio_stream_index": 1, "audio_timebase": {"den": 48000, "num": 1}, "channel_layout": 3, "channels": 2, "display_ratio": {"den": 9, "num": 16}, "duration": 10.773333549499512, "file_size": "23189220", "fps": {"den": 242999, "num": 7245000}, "has_audio": true, "has_single_image": false, "has_video": true, "height": 1080, "interlaced_frame": false, "metadata": {"com.android.version": "8.0.0", "compatible_brands": "isommp42", "creation_time": "2019-03-12T16:59:02.000000Z", "handler_name": "SoundHandle", "language": "eng", "major_brand": "mp42", "minor_version": "0", "rotate": "270"}, "path": "../Downloads/rental/20190312_235850.mp4", "pixel_format": 0, "pixel_ratio": {"den": 1, "num": 1}, "sample_rate": 48000, "top_field_first": true, "type": "FFmpegReader", "vcodec": "h264", "video_bit_rate": 2149737, "video_length": "322", "video_stream_index": 0, "video_timebase": {"den": 90000, "num": 1}, "width": 1920}, "rotation": {"Points": [{"co": {"X": 1.0, "Y": 270.0}, "interpolation": 2}]}, "scale": 1, "scale_x": {"Points": [{"co": {"X": 1.0, "Y": 1.0}, "interpolation": 2}]}, "scale_y": {"Points": [{"co": {"X": 1.0, "Y": 1.0}, "interpolation": 2}]}, "shear_x": {"Points": [{"co": {"X": 1.0, "Y": 0.0}, "interpolation": 2}]}, "shear_y": {"Points": [{"co": {"X": 1.0, "Y": 0.0}, "interpolation": 2}]}, "start": 4.88, "time": {"Points": [{"co": {"X": 1.0, "Y": 1.0}, "interpolation": 2}]}, "volume": {"Points": [{"co": {"X": 1.0, "Y": 1.0}, "interpolation": 2}]}, "wave_color": {"alpha": {"Points": [{"co": {"X": 1.0, "Y": 255.0}, "handle_left": {"X": 0.5, "Y": 1.0}, "handle_right": {"X": 0.5, "Y": 0.0}, "handle_type": 0, "interpolation": 0}]}, "blue": {"Points": [{"co": {"X": 1.0, "Y": 255.0}, "handle_left": {"X": 0.5, "Y": 1.0}, "handle_right": {"X": 0.5, "Y": 0.0}, "handle_type": 0, "interpolation": 0}]}, "green": {"Points": [{"co": {"X": 1.0, "Y": 123.0}, "handle_left": {"X": 0.5, "Y": 1.0}, "handle_right": {"X": 0.5, "Y": 0.0}, "handle_type": 0, "interpolation": 0}]}, "red": {"Points": [{"co": {"X": 1.0, "Y": 0.0}, "handle_left": {"X": 0.5, "Y": 1.0}, "handle_right": {"X": 0.5, "Y": 0.0}, "handle_type": 0, "interpolation": 0}]}}, "waveform": false, "file_id": "IKWQS8ASAE", "title": "20190312_235850.mp4", "image": "../.openshot_qt/thumbnail/2EV5X2F5QY-146.png", "id": "2EV5X2F5QY"}], "effects": [{"id": "JXMA2J7KRQ", "layer": 0, "title": "Transition", "type": "Mask", "position": 2.56, "start": 0, "end": 0.36, "brightness": {"Points": [{"co": {"X": 1, "Y": 1}, "handle_left": {"X": 0.5, "Y": 1}, "handle_right": {"X": 0.5, "Y": 0}, "handle_type": 0, "interpolation": 0}, {"co": {"X": 10, "Y": -1}, "handle_left": {"X": 0.5, "Y": 1}, "handle_right": {"X": 0.5, "Y": 0}, "handle_type": 0, "interpolation": 0}]}, "contrast": {"Points": [{"co": {"X": 1, "Y": 3}, "interpolation": 2}]}, "reader": {"acodec": "", "audio_bit_rate": 0, "audio_stream_index": -1, "audio_timebase": {"den": 1, "num": 1}, "channel_layout": 4, "channels": 0, "display_ratio": {"den": 4, "num": 5}, "duration": 86400.0, "file_size": "1658880", "fps": {"den": 1, "num": 30}, "has_audio": false, "has_single_image": true, "has_video": true, "height": 576, "interlaced_frame": false, "metadata": {}, "path": "@transitions/common/fade.svg", "pixel_format": -1, "pixel_ratio": {"den": 1, "num": 1}, "sample_rate": 0, "top_field_first": true, "type": "QtImageReader", "vcodec": "", "video_bit_rate": 0, "video_length": "2592000", "video_stream_index": -1, "video_timebase": {"den": 30, "num": 1}, "width": 720}, "replace_image": false}, {"layer": 0, "title": "Transition", "type": "Mask", "position": 7.76, "start": 0, "end": 0.36, "brightness": {"Points": [{"co": {"X": 1, "Y": 1}, "handle_left": {"X": 0.5, "Y": 1}, "handle_right": {"X": 0.5, "Y": 0}, "handle_type": 0, "interpolation": 0}, {"co": {"X": 10, "Y": -1}, "handle_left": {"X": 0.5, "Y": 1}, "handle_right": {"X": 0.5, "Y": 0}, "handle_type": 0, "interpolation": 0}]}, "contrast": {"Points": [{"co": {"X": 1, "Y": 3}, "interpolation": 2}]}, "reader": {"acodec": "", "audio_bit_rate": 0, "audio_stream_index": -1, "audio_timebase": {"den": 1, "num": 1}, "channel_layout": 4, "channels": 0, "display_ratio": {"den": 4, "num": 5}, "duration": 86400.0, "file_size": "1658880", "fps": {"den": 1, "num": 30}, "has_audio": false, "has_single_image": true, "has_video": true, "height": 576, "interlaced_frame": false, "metadata": {}, "path": "@transitions/common/fade.svg", "pixel_format": -1, "pixel_ratio": {"den": 1, "num": 1}, "sample_rate": 0, "top_field_first": true, "type": "QtImageReader", "vcodec": "", "video_bit_rate": 0, "video_length": "2592000", "video_stream_index": -1, "video_timebase": {"den": 30, "num": 1}, "width": 720}, "replace_image": false, "id": "1RX4QX2LTH"}], "export_path": "", "import_path": "", "files": [{"acodec": "", "audio_bit_rate": 0, "audio_stream_index": -1, "audio_timebase": {"den": 1, "num": 1}, "channel_layout": 4, "channels": 0, "display_ratio": {"den": 709, "num": 391}, "duration": 86400.0, "file_size": "1108876", "fps": {"den": 1, "num": 30}, "has_audio": false, "has_single_image": true, "has_video": true, "height": 709, "interlaced_frame": false, "metadata": {}, "path": "../Downloads/rental/wa1.png", "pixel_format": -1, "pixel_ratio": {"den": 1, "num": 1}, "sample_rate": 0, "top_field_first": true, "type": "QtImageReader", "vcodec": "", "video_bit_rate": 0, "video_length": "2592000", "video_stream_index": -1, "video_timebase": {"den": 30, "num": 1}, "width": 391, "media_type": "image", "id": "0LJKUK8OVG"}, {"acodec": "", "audio_bit_rate": 0, "audio_stream_index": -1, "audio_timebase": {"den": 1, "num": 1}, "channel_layout": 4, "channels": 0, "display_ratio": {"den": 709, "num": 391}, "duration": 86400.0, "file_size": "1108876", "fps": {"den": 1, "num": 30}, "has_audio": false, "has_single_image": true, "has_video": true, "height": 709, "interlaced_frame": false, "metadata": {}, "path": "../Downloads/rental/wa2.png", "pixel_format": -1, "pixel_ratio": {"den": 1, "num": 1}, "sample_rate": 0, "top_field_first": true, "type": "QtImageReader", "vcodec": "", "video_bit_rate": 0, "video_length": "2592000", "video_stream_index": -1, "video_timebase": {"den": 30, "num": 1}, "width": 391, "media_type": "image", "id": "3L980KKA17"}, {"acodec": "", "audio_bit_rate": 0, "audio_stream_index": -1, "audio_timebase": {"den": 1, "num": 1}, "channel_layout": 4, "channels": 0, "display_ratio": {"den": 709, "num": 391}, "duration": 86400.0, "file_size": "1108876", "fps": {"den": 1, "num": 30}, "has_audio": false, "has_single_image": true, "has_video": true, "height": 709, "interlaced_frame": false, "metadata": {}, "path": "../Downloads/rental/wa3.png", "pixel_format": -1, "pixel_ratio": {"den": 1, "num": 1}, "sample_rate": 0, "top_field_first": true, "type": "QtImageReader", "vcodec": "", "video_bit_rate": 0, "video_length": "2592000", "video_stream_index": -1, "video_timebase": {"den": 30, "num": 1}, "width": 391, "media_type": "image", "id": "H68DFQTNFM"}, {"acodec": "", "audio_bit_rate": 0, "audio_stream_index": -1, "audio_timebase": {"den": 1, "num": 1}, "channel_layout": 4, "channels": 0, "display_ratio": {"den": 709, "num": 391}, "duration": 86400.0, "file_size": "1108876", "fps": {"den": 1, "num": 30}, "has_audio": false, "has_single_image": true, "has_video": true, "height": 709, "interlaced_frame": false, "metadata": {}, "path": "../Downloads/rental/wa4.png", "pixel_format": -1, "pixel_ratio": {"den": 1, "num": 1}, "sample_rate": 0, "top_field_first": true, "type": "QtImageReader", "vcodec": "", "video_bit_rate": 0, "video_length": "2592000", "video_stream_index": -1, "video_timebase": {"den": 30, "num": 1}, "width": 391, "media_type": "image", "id": "V4UFWWPQWS"}, {"acodec": "mp3float", "audio_bit_rate": 118231, "audio_stream_index": 0, "audio_timebase": {"den": 14112000, "num": 1}, "channel_layout": 3, "channels": 2, "display_ratio": {"den": 1, "num": 1}, "duration": 280.0559997558594, "file_size": "4138941", "fps": {"den": 1, "num": 24}, "has_audio": true, "has_single_image": false, "has_video": false, "height": 480, "interlaced_frame": false, "metadata": {"encoder": "Lavf58.20.100"}, "path": "../Videos/kimino.mp3", "pixel_format": -1, "pixel_ratio": {"den": 1, "num": 1}, "sample_rate": 48000, "top_field_first": true, "type": "FFmpegReader", "vcodec": "", "video_bit_rate": 0, "video_length": "6721", "video_stream_index": -1, "video_timebase": {"den": 24, "num": 1}, "width": 720, "media_type": "audio", "id": "IP7SKH8SA5"}, {"acodec": "aac", "audio_bit_rate": 256000, "audio_stream_index": 1, "audio_timebase": {"den": 48000, "num": 1}, "channel_layout": 3, "channels": 2, "display_ratio": {"den": 9, "num": 16}, "duration": 15.658666610717773, "file_size": "33823094", "fps": {"den": 1410901, "num": 42300000}, "has_audio": true, "has_single_image": false, "has_video": true, "height": 1080, "interlaced_frame": false, "metadata": {"com.android.version": "8.0.0", "compatible_brands": "isommp42", "creation_time": "2019-03-12T16:53:35.000000Z", "handler_name": "SoundHandle", "language": "eng", "major_brand": "mp42", "minor_version": "0", "rotate": "270"}, "path": "../Downloads/rental/20190312_235254.mp4", "pixel_format": 0, "pixel_ratio": {"den": 1, "num": 1}, "sample_rate": 48000, "top_field_first": true, "type": "FFmpegReader", "vcodec": "h264", "video_bit_rate": 2159702, "video_length": "470", "video_stream_index": 0, "video_timebase": {"den": 90000, "num": 1}, "width": 1920, "media_type": "video", "id": "4NL903J1H7"}, {"acodec": "aac", "audio_bit_rate": 256001, "audio_stream_index": 1, "audio_timebase": {"den": 48000, "num": 1}, "channel_layout": 3, "channels": 2, "display_ratio": {"den": 9, "num": 16}, "duration": 7.48799991607666, "file_size": "16365400", "fps": {"den": 170339, "num": 5107500}, "has_audio": true, "has_single_image": false, "has_video": true, "height": 1080, "interlaced_frame": false, "metadata": {"com.android.version": "8.0.0", "compatible_brands": "isommp42", "creation_time": "2019-03-12T16:54:43.000000Z", "handler_name": "SoundHandle", "language": "eng", "major_brand": "mp42", "minor_version": "0", "rotate": "270"}, "path": "../Downloads/rental/20190312_235435.mp4", "pixel_format": 0, "pixel_ratio": {"den": 1, "num": 1}, "sample_rate": 48000, "top_field_first": true, "type": "FFmpegReader", "vcodec": "h264", "video_bit_rate": 2165308, "video_length": "227", "video_stream_index": 0, "video_timebase": {"den": 90000, "num": 1}, "width": 1920, "media_type": "video", "id": "6Q1HKONW84"}, {"acodec": "aac", "audio_bit_rate": 256000, "audio_stream_index": 1, "audio_timebase": {"den": 48000, "num": 1}, "channel_layout": 3, "channels": 2, "display_ratio": {"den": 9, "num": 16}, "duration": 8.853333473205566, "file_size": "19218271", "fps": {"den": 14829, "num": 445000}, "has_audio": true, "has_single_image": false, "has_video": true, "height": 1080, "interlaced_frame": false, "metadata": {"com.android.version": "8.0.0", "compatible_brands": "isommp42", "creation_time": "2019-03-12T16:56:12.000000Z", "handler_name": "SoundHandle", "language": "eng", "major_brand": "mp42", "minor_version": "0", "rotate": "180"}, "path": "../Downloads/rental/20190312_235602.mp4", "pixel_format": 0, "pixel_ratio": {"den": 1, "num": 1}, "sample_rate": 48000, "top_field_first": true, "type": "FFmpegReader", "vcodec": "h264", "video_bit_rate": 2161785, "video_length": "267", "video_stream_index": 0, "video_timebase": {"den": 90000, "num": 1}, "width": 1920, "media_type": "video", "id": "JWZ5I01NPS"}, {"acodec": "aac", "audio_bit_rate": 256000, "audio_stream_index": 1, "audio_timebase": {"den": 48000, "num": 1}, "channel_layout": 3, "channels": 2, "display_ratio": {"den": 9, "num": 16}, "duration": 13.909333229064941, "file_size": "30069816", "fps": {"den": 39329, "num": 1175625}, "has_audio": true, "has_single_image": false, "has_video": true, "height": 1080, "interlaced_frame": false, "metadata": {"com.android.version": "8.0.0", "compatible_brands": "isommp42", "creation_time": "2019-03-12T16:57:05.000000Z", "handler_name": "SoundHandle", "language": "eng", "major_brand": "mp42", "minor_version": "0", "rotate": "270"}, "path": "../Downloads/rental/20190312_235650.mp4", "pixel_format": 0, "pixel_ratio": {"den": 1, "num": 1}, "sample_rate": 48000, "top_field_first": true, "type": "FFmpegReader", "vcodec": "h264", "video_bit_rate": 2150301, "video_length": "418", "video_stream_index": 0, "video_timebase": {"den": 90000, "num": 1}, "width": 1920, "media_type": "video", "id": "VHKCGJMK2Y"}, {"acodec": "aac", "audio_bit_rate": 256041, "audio_stream_index": 1, "audio_timebase": {"den": 48000, "num": 1}, "channel_layout": 3, "channels": 2, "display_ratio": {"den": 9, "num": 16}, "duration": 10.773333549499512, "file_size": "23189220", "fps": {"den": 242999, "num": 7245000}, "has_audio": true, "has_single_image": false, "has_video": true, "height": 1080, "interlaced_frame": false, "metadata": {"com.android.version": "8.0.0", "compatible_brands": "isommp42", "creation_time": "2019-03-12T16:59:02.000000Z", "handler_name": "SoundHandle", "language": "eng", "major_brand": "mp42", "minor_version": "0", "rotate": "270"}, "path": "../Downloads/rental/20190312_235850.mp4", "pixel_format": 0, "pixel_ratio": {"den": 1, "num": 1}, "sample_rate": 48000, "top_field_first": true, "type": "FFmpegReader", "vcodec": "h264", "video_bit_rate": 2149737, "video_length": "322", "video_stream_index": 0, "video_timebase": {"den": 90000, "num": 1}, "width": 1920, "media_type": "video", "id": "IKWQS8ASAE"}, {"acodec": "mp3float", "audio_bit_rate": 118231, "audio_stream_index": 0, "audio_timebase": {"den": 14112000, "num": 1}, "channel_layout": 3, "channels": 2, "display_ratio": {"den": 1, "num": 1}, "duration": 280.0559997558594, "file_size": "4138941", "fps": {"den": 1, "num": 24}, "has_audio": true, "has_single_image": false, "has_video": false, "height": 480, "interlaced_frame": false, "metadata": {"encoder": "Lavf58.20.100"}, "path": "../Videos/kimino.mp3", "pixel_format": -1, "pixel_ratio": {"den": 1, "num": 1}, "sample_rate": 48000, "top_field_first": true, "type": "FFmpegReader", "vcodec": "", "video_bit_rate": 0, "video_length": "6721", "video_stream_index": -1, "video_timebase": {"den": 24, "num": 1}, "width": 720, "media_type": "audio", "id": "JCL0SJYIR0", "start": 78.83333333333333, "end": 91.875, "name": "mantap"}], "duration": 300, "scale": 1, "tick_pixels": 100, "playhead_position": 0, "profile": "1024x576 16:9 PAL", "layers": [{"id": "L2", "label": "", "number": 0, "y": 0, "lock": false}, {"id": "L3", "label": "", "number": 1, "y": 0, "lock": false}], "markers": [], "progress": [], "history": {"undo": [{"type": "delete", "key": ["effects", {"id": "M92VLXSI5R"}], "value": null, "partial": false, "old_values": {"id": "M92VLXSI5R", "layer": 1, "title": "Transition", "type": "Mask", "position": 0.0, "start": 0, "end": 10, "brightness": {"Points": [{"co": {"X": 1.0, "Y": 1.0}, "handle_left": {"X": 0.5, "Y": 1.0}, "handle_right": {"X": 0.5, "Y": 0.0}, "handle_type": 0, "interpolation": 0}, {"co": {"X": 251.0, "Y": -1.0}, "handle_left": {"X": 0.5, "Y": 1.0}, "handle_right": {"X": 0.5, "Y": 0.0}, "handle_type": 0, "interpolation": 0}]}, "contrast": {"Points": [{"co": {"X": 1.0, "Y": 3.0}, "interpolation": 2}]}, "reader": {"acodec": "", "audio_bit_rate": 0, "audio_stream_index": -1, "audio_timebase": {"den": 1, "num": 1}, "channel_layout": 4, "channels": 0, "display_ratio": {"den": 4, "num": 5}, "duration": 86400.0, "file_size": "1658880", "fps": {"den": 1, "num": 30}, "has_audio": false, "has_single_image": true, "has_video": true, "height": 576, "interlaced_frame": false, "metadata": {}, "path": "/usr/lib/python3.7/site-packages/openshot_qt/transitions/common/circle_out_to_in.svg", "pixel_format": -1, "pixel_ratio": {"den": 1, "num": 1}, "sample_rate": 0, "top_field_first": true, "type": "QtImageReader", "vcodec": "", "video_bit_rate": 0, "video_length": "2592000", "video_stream_index": -1, "video_timebase": {"den": 30, "num": 1}, "width": 720}, "replace_image": false}}, {"type": "insert", "key": ["effects"], "value": {"id": "JXMA2J7KRQ", "layer": 0, "title": "Transition", "type": "Mask", "position": 2.56, "start": 0, "end": 0.36, "brightness": {"Points": [{"co": {"X": 1, "Y": 1}, "handle_left": {"X": 0.5, "Y": 1}, "handle_right": {"X": 0.5, "Y": 0}, "handle_type": 0, "interpolation": 0}, {"co": {"X": 10, "Y": -1}, "handle_left": {"X": 0.5, "Y": 1}, "handle_right": {"X": 0.5, "Y": 0}, "handle_type": 0, "interpolation": 0}]}, "contrast": {"Points": [{"co": {"X": 1, "Y": 3}, "interpolation": 2}]}, "reader": {"acodec": "", "audio_bit_rate": 0, "audio_stream_index": -1, "audio_timebase": {"den": 1, "num": 1}, "channel_layout": 4, "channels": 0, "display_ratio": {"den": 4, "num": 5}, "duration": 86400.0, "file_size": "1658880", "fps": {"den": 1, "num": 30}, "has_audio": false, "has_single_image": true, "has_video": true, "height": 576, "interlaced_frame": false, "metadata": {}, "path": "/usr/lib/python3.7/site-packages/openshot_qt/transitions/common/fade.svg", "pixel_format": -1, "pixel_ratio": {"den": 1, "num": 1}, "sample_rate": 0, "top_field_first": true, "type": "QtImageReader", "vcodec": "", "video_bit_rate": 0, "video_length": "2592000", "video_stream_index": -1, "video_timebase": {"den": 30, "num": 1}, "width": 720}, "replace_image": false}, "partial": false, "old_values": []}, {"type": "update", "key": ["effects", {"id": "JXMA2J7KRQ"}], "value": {"id": "JXMA2J7KRQ", "layer": 1, "position": 0, "start": 0, "end": 10, "brightness": {"Points": [{"co": {"X": 1, "Y": 1}, "handle_left": {"X": 0.5, "Y": 1}, "handle_right": {"X": 0.5, "Y": 0}, "handle_type": 0, "interpolation": 0}, {"co": {"X": 251, "Y": -1}, "handle_left": {"X": 0.5, "Y": 1}, "handle_right": {"X": 0.5, "Y": 0}, "handle_type": 0, "interpolation": 0}]}, "contrast": {"Points": [{"co": {"X": 1, "Y": 3}, "interpolation": 2}]}}, "partial": false, "old_values": {"id": "JXMA2J7KRQ", "layer": 1, "title": "Transition", "type": "Mask", "position": 0.04, "start": 0, "end": 10, "brightness": {"Points": [{"co": {"X": 1.0, "Y": 1.0}, "handle_left": {"X": 0.5, "Y": 1.0}, "handle_right": {"X": 0.5, "Y": 0.0}, "handle_type": 0, "interpolation": 0}, {"co": {"X": 251.0, "Y": -1.0}, "handle_left": {"X": 0.5, "Y": 1.0}, "handle_right": {"X": 0.5, "Y": 0.0}, "handle_type": 0, "interpolation": 0}]}, "contrast": {"Points": [{"co": {"X": 1.0, "Y": 3.0}, "interpolation": 2}]}, "reader": {"acodec": "", "audio_bit_rate": 0, "audio_stream_index": -1, "audio_timebase": {"den": 1, "num": 1}, "channel_layout": 4, "channels": 0, "display_ratio": {"den": 4, "num": 5}, "duration": 86400.0, "file_size": "1658880", "fps": {"den": 1, "num": 30}, "has_audio": false, "has_single_image": true, "has_video": true, "height": 576, "interlaced_frame": false, "metadata": {}, "path": "/usr/lib/python3.7/site-packages/openshot_qt/transitions/common/fade.svg", "pixel_format": -1, "pixel_ratio": {"den": 1, "num": 1}, "sample_rate": 0, "top_field_first": true, "type": "QtImageReader", "vcodec": "", "video_bit_rate": 0, "video_length": "2592000", "video_stream_index": -1, "video_timebase": {"den": 30, "num": 1}, "width": 720}, "replace_image": false}}, {"type": "update", "key": ["effects", {"id": "JXMA2J7KRQ"}], "value": {"id": "JXMA2J7KRQ", "layer": 1, "position": 0, "start": 0, "end": 4.56, "brightness": {"Points": [{"co": {"X": 1, "Y": 1}, "handle_left": {"X": 0.5, "Y": 1}, "handle_right": {"X": 0.5, "Y": 0}, "handle_type": 0, "interpolation": 0}, {"co": {"X": 115, "Y": -1}, "handle_left": {"X": 0.5, "Y": 1}, "handle_right": {"X": 0.5, "Y": 0}, "handle_type": 0, "interpolation": 0}]}, "contrast": {"Points": [{"co": {"X": 1, "Y": 3}, "interpolation": 2}]}}, "partial": false, "old_values": {"id": "JXMA2J7KRQ", "layer": 1, "title": "Transition", "type": "Mask", "position": 0, "start": 0, "end": 10, "brightness": {"Points": [{"co": {"X": 1, "Y": 1}, "handle_left": {"X": 0.5, "Y": 1}, "handle_right": {"X": 0.5, "Y": 0}, "handle_type": 0, "interpolation": 0}, {"co": {"X": 251, "Y": -1}, "handle_left": {"X": 0.5, "Y": 1}, "handle_right": {"X": 0.5, "Y": 0}, "handle_type": 0, "interpolation": 0}]}, "contrast": {"Points": [{"co": {"X": 1, "Y": 3}, "interpolation": 2}]}, "reader": {"acodec": "", "audio_bit_rate": 0, "audio_stream_index": -1, "audio_timebase": {"den": 1, "num": 1}, "channel_layout": 4, "channels": 0, "display_ratio": {"den": 4, "num": 5}, "duration": 86400.0, "file_size": "1658880", "fps": {"den": 1, "num": 30}, "has_audio": false, "has_single_image": true, "has_video": true, "height": 576, "interlaced_frame": false, "metadata": {}, "path": "/usr/lib/python3.7/site-packages/openshot_qt/transitions/common/fade.svg", "pixel_format": -1, "pixel_ratio": {"den": 1, "num": 1}, "sample_rate": 0, "top_field_first": true, "type": "QtImageReader", "vcodec": "", "video_bit_rate": 0, "video_length": "2592000", "video_stream_index": -1, "video_timebase": {"den": 30, "num": 1}, "width": 720}, "replace_image": false}}, {"type": "update", "key": ["effects", {"id": "JXMA2J7KRQ"}], "value": {"id": "JXMA2J7KRQ", "layer": 1, "position": 0, "start": 0, "end": 0.36, "brightness": {"Points": [{"co": {"X": 1, "Y": 1}, "handle_left": {"X": 0.5, "Y": 1}, "handle_right": {"X": 0.5, "Y": 0}, "handle_type": 0, "interpolation": 0}, {"co": {"X": 10, "Y": -1}, "handle_left": {"X": 0.5, "Y": 1}, "handle_right": {"X": 0.5, "Y": 0}, "handle_type": 0, "interpolation": 0}]}, "contrast": {"Points": [{"co": {"X": 1, "Y": 3}, "interpolation": 2}]}}, "partial": false, "old_values": {"id": "JXMA2J7KRQ", "layer": 1, "title": "Transition", "type": "Mask", "position": 0, "start": 0, "end": 4.56, "brightness": {"Points": [{"co": {"X": 1, "Y": 1}, "handle_left": {"X": 0.5, "Y": 1}, "handle_right": {"X": 0.5, "Y": 0}, "handle_type": 0, "interpolation": 0}, {"co": {"X": 115, "Y": -1}, "handle_left": {"X": 0.5, "Y": 1}, "handle_right": {"X": 0.5, "Y": 0}, "handle_type": 0, "interpolation": 0}]}, "contrast": {"Points": [{"co": {"X": 1, "Y": 3}, "interpolation": 2}]}, "reader": {"acodec": "", "audio_bit_rate": 0, "audio_stream_index": -1, "audio_timebase": {"den": 1, "num": 1}, "channel_layout": 4, "channels": 0, "display_ratio": {"den": 4, "num": 5}, "duration": 86400.0, "file_size": "1658880", "fps": {"den": 1, "num": 30}, "has_audio": false, "has_single_image": true, "has_video": true, "height": 576, "interlaced_frame": false, "metadata": {}, "path": "/usr/lib/python3.7/site-packages/openshot_qt/transitions/common/fade.svg", "pixel_format": -1, "pixel_ratio": {"den": 1, "num": 1}, "sample_rate": 0, "top_field_first": true, "type": "QtImageReader", "vcodec": "", "video_bit_rate": 0, "video_length": "2592000", "video_stream_index": -1, "video_timebase": {"den": 30, "num": 1}, "width": 720}, "replace_image": false}}, {"type": "update", "key": ["effects", {"id": "JXMA2J7KRQ"}], "value": {"id": "JXMA2J7KRQ", "layer": 0, "position": 2.56, "start": 0, "end": 0.36, "brightness": {"Points": [{"co": {"X": 1, "Y": 1}, "handle_left": {"X": 0.5, "Y": 1}, "handle_right": {"X": 0.5, "Y": 0}, "handle_type": 0, "interpolation": 0}, {"co": {"X": 10, "Y": -1}, "handle_left": {"X": 0.5, "Y": 1}, "handle_right": {"X": 0.5, "Y": 0}, "handle_type": 0, "interpolation": 0}]}, "contrast": {"Points": [{"co": {"X": 1, "Y": 3}, "interpolation": 2}]}}, "partial": false, "old_values": {"id": "JXMA2J7KRQ", "layer": 1, "title": "Transition", "type": "Mask", "position": 0, "start": 0, "end": 0.36, "brightness": {"Points": [{"co": {"X": 1, "Y": 1}, "handle_left": {"X": 0.5, "Y": 1}, "handle_right": {"X": 0.5, "Y": 0}, "handle_type": 0, "interpolation": 0}, {"co": {"X": 10, "Y": -1}, "handle_left": {"X": 0.5, "Y": 1}, "handle_right": {"X": 0.5, "Y": 0}, "handle_type": 0, "interpolation": 0}]}, "contrast": {"Points": [{"co": {"X": 1, "Y": 3}, "interpolation": 2}]}, "reader": {"acodec": "", "audio_bit_rate": 0, "audio_stream_index": -1, "audio_timebase": {"den": 1, "num": 1}, "channel_layout": 4, "channels": 0, "display_ratio": {"den": 4, "num": 5}, "duration": 86400.0, "file_size": "1658880", "fps": {"den": 1, "num": 30}, "has_audio": false, "has_single_image": true, "has_video": true, "height": 576, "interlaced_frame": false, "metadata": {}, "path": "/usr/lib/python3.7/site-packages/openshot_qt/transitions/common/fade.svg", "pixel_format": -1, "pixel_ratio": {"den": 1, "num": 1}, "sample_rate": 0, "top_field_first": true, "type": "QtImageReader", "vcodec": "", "video_bit_rate": 0, "video_length": "2592000", "video_stream_index": -1, "video_timebase": {"den": 30, "num": 1}, "width": 720}, "replace_image": false}}, {"type": "insert", "key": ["effects"], "value": {"layer": 0, "title": "Transition", "type": "Mask", "position": 7.76, "start": 0, "end": 0.36, "brightness": {"Points": [{"co": {"X": 1, "Y": 1}, "handle_left": {"X": 0.5, "Y": 1}, "handle_right": {"X": 0.5, "Y": 0}, "handle_type": 0, "interpolation": 0}, {"co": {"X": 10, "Y": -1}, "handle_left": {"X": 0.5, "Y": 1}, "handle_right": {"X": 0.5, "Y": 0}, "handle_type": 0, "interpolation": 0}]}, "contrast": {"Points": [{"co": {"X": 1, "Y": 3}, "interpolation": 2}]}, "reader": {"acodec": "", "audio_bit_rate": 0, "audio_stream_index": -1, "audio_timebase": {"den": 1, "num": 1}, "channel_layout": 4, "channels": 0, "display_ratio": {"den": 4, "num": 5}, "duration": 86400.0, "file_size": "1658880", "fps": {"den": 1, "num": 30}, "has_audio": false, "has_single_image": true, "has_video": true, "height": 576, "interlaced_frame": false, "metadata": {}, "path": "/usr/lib/python3.7/site-packages/openshot_qt/transitions/common/fade.svg", "pixel_format": -1, "pixel_ratio": {"den": 1, "num": 1}, "sample_rate": 0, "top_field_first": true, "type": "QtImageReader", "vcodec": "", "video_bit_rate": 0, "video_length": "2592000", "video_stream_index": -1, "video_timebase": {"den": 30, "num": 1}, "width": 720}, "replace_image": false, "id": "1RX4QX2LTH"}, "partial": false, "old_values": [{"id": "JXMA2J7KRQ", "layer": 0, "title": "Transition", "type": "Mask", "position": 2.56, "start": 0, "end": 0.36, "brightness": {"Points": [{"co": {"X": 1, "Y": 1}, "handle_left": {"X": 0.5, "Y": 1}, "handle_right": {"X": 0.5, "Y": 0}, "handle_type": 0, "interpolation": 0}, {"co": {"X": 10, "Y": -1}, "handle_left": {"X": 0.5, "Y": 1}, "handle_right": {"X": 0.5, "Y": 0}, "handle_type": 0, "interpolation": 0}]}, "contrast": {"Points": [{"co": {"X": 1, "Y": 3}, "interpolation": 2}]}, "reader": {"acodec": "", "audio_bit_rate": 0, "audio_stream_index": -1, "audio_timebase": {"den": 1, "num": 1}, "channel_layout": 4, "channels": 0, "display_ratio": {"den": 4, "num": 5}, "duration": 86400.0, "file_size": "1658880", "fps": {"den": 1, "num": 30}, "has_audio": false, "has_single_image": true, "has_video": true, "height": 576, "interlaced_frame": false, "metadata": {}, "path": "/usr/lib/python3.7/site-packages/openshot_qt/transitions/common/fade.svg", "pixel_format": -1, "pixel_ratio": {"den": 1, "num": 1}, "sample_rate": 0, "top_field_first": true, "type": "QtImageReader", "vcodec": "", "video_bit_rate": 0, "video_length": "2592000", "video_stream_index": -1, "video_timebase": {"den": 30, "num": 1}, "width": 720}, "replace_image": false}]}, {"type": "update", "key": ["effects", {"id": "1RX4QX2LTH"}], "value": {"id": "1RX4QX2LTH", "layer": 0, "position": 7.76, "start": 0, "end": 0.36, "brightness": {"Points": [{"co": {"X": 1, "Y": 1}, "handle_left": {"X": 0.5, "Y": 1}, "handle_right": {"X": 0.5, "Y": 0}, "handle_type": 0, "interpolation": 0}, {"co": {"X": 10, "Y": -1}, "handle_left": {"X": 0.5, "Y": 1}, "handle_right": {"X": 0.5, "Y": 0}, "handle_type": 0, "interpolation": 0}]}, "contrast": {"Points": [{"co": {"X": 1, "Y": 3}, "interpolation": 2}]}}, "partial": false, "old_values": {"layer": 0, "title": "Transition", "type": "Mask", "position": 5.28, "start": 0, "end": 0.36, "brightness": {"Points": [{"co": {"X": 1, "Y": 1}, "handle_left": {"X": 0.5, "Y": 1}, "handle_right": {"X": 0.5, "Y": 0}, "handle_type": 0, "interpolation": 0}, {"co": {"X": 10, "Y": -1}, "handle_left": {"X": 0.5, "Y": 1}, "handle_right": {"X": 0.5, "Y": 0}, "handle_type": 0, "interpolation": 0}]}, "contrast": {"Points": [{"co": {"X": 1, "Y": 3}, "interpolation": 2}]}, "reader": {"acodec": "", "audio_bit_rate": 0, "audio_stream_index": -1, "audio_timebase": {"den": 1, "num": 1}, "channel_layout": 4, "channels": 0, "display_ratio": {"den": 4, "num": 5}, "duration": 86400.0, "file_size": "1658880", "fps": {"den": 1, "num": 30}, "has_audio": false, "has_single_image": true, "has_video": true, "height": 576, "interlaced_frame": false, "metadata": {}, "path": "/usr/lib/python3.7/site-packages/openshot_qt/transitions/common/fade.svg", "pixel_format": -1, "pixel_ratio": {"den": 1, "num": 1}, "sample_rate": 0, "top_field_first": true, "type": "QtImageReader", "vcodec": "", "video_bit_rate": 0, "video_length": "2592000", "video_stream_index": -1, "video_timebase": {"den": 30, "num": 1}, "width": 720}, "replace_image": false, "id": "1RX4QX2LTH"}}, {"type": "update", "key": ["clips", {"id": "2EV5X2F5QY"}], "value": {"id": "2EV5X2F5QY", "layer": 0, "position": 20.04, "image": "/home/lordacil/.openshot_qt/thumbnail/2EV5X2F5QY-146.png", "start": 4.88, "end": 9.92}, "partial": false, "old_values": {"alpha": {"Points": [{"co": {"X": 1.0, "Y": 1.0}, "interpolation": 2}]}, "anchor": 0, "channel_filter": {"Points": [{"co": {"X": 1.0, "Y": -1.0}, "interpolation": 2}]}, "channel_mapping": {"Points": [{"co": {"X": 1.0, "Y": -1.0}, "interpolation": 2}]}, "crop_height": {"Points": [{"co": {"X": 1.0, "Y": -1.0}, "interpolation": 2}]}, "crop_width": {"Points": [{"co": {"X": 1.0, "Y": -1.0}, "interpolation": 2}]}, "crop_x": {"Points": [{"co": {"X": 1.0, "Y": 0.0}, "interpolation": 2}]}, "crop_y": {"Points": [{"co": {"X": 1.0, "Y": 0.0}, "interpolation": 2}]}, "display": 0, "duration": 10.773333549499512, "effects": [{"class_name": "Saturation", "description": "Adjust the color saturation.", "duration": 0.0, "end": 0.0, "has_audio": false, "has_video": true, "id": "1ZUT2T3RLC", "layer": 0, "name": "Color Saturation", "order": 0, "position": 0.0, "saturation": {"Points": [{"co": {"X": 1.0, "Y": 1.0}, "interpolation": 2}, {"co": {"X": 124, "Y": 0.0}, "interpolation": 1}]}, "short_name": "", "start": 0.0, "type": "Saturation"}], "end": 8.84, "gravity": 4, "has_audio": {"Points": [{"co": {"X": 1.0, "Y": -1.0}, "interpolation": 2}]}, "has_video": {"Points": [{"co": {"X": 1.0, "Y": -1.0}, "interpolation": 2}]}, "layer": 0, "location_x": {"Points": [{"co": {"X": 1.0, "Y": 0.0}, "interpolation": 2}]}, "location_y": {"Points": [{"co": {"X": 1.0, "Y": 0.0}, "interpolation": 2}]}, "mixing": 0, "perspective_c1_x": {"Points": [{"co": {"X": 1.0, "Y": -1.0}, "interpolation": 2}]}, "perspective_c1_y": {"Points": [{"co": {"X": 1.0, "Y": -1.0}, "interpolation": 2}]}, "perspective_c2_x": {"Points": [{"co": {"X": 1.0, "Y": -1.0}, "interpolation": 2}]}, "perspective_c2_y": {"Points": [{"co": {"X": 1.0, "Y": -1.0}, "interpolation": 2}]}, "perspective_c3_x": {"Points": [{"co": {"X": 1.0, "Y": -1.0}, "interpolation": 2}]}, "perspective_c3_y": {"Points": [{"co": {"X": 1.0, "Y": -1.0}, "interpolation": 2}]}, "perspective_c4_x": {"Points": [{"co": {"X": 1.0, "Y": -1.0}, "interpolation": 2}]}, "perspective_c4_y": {"Points": [{"co": {"X": 1.0, "Y": -1.0}, "interpolation": 2}]}, "position": 20.04, "reader": {"acodec": "aac", "audio_bit_rate": 256041, "audio_stream_index": 1, "audio_timebase": {"den": 48000, "num": 1}, "channel_layout": 3, "channels": 2, "display_ratio": {"den": 9, "num": 16}, "duration": 10.773333549499512, "file_size": "23189220", "fps": {"den": 242999, "num": 7245000}, "has_audio": true, "has_single_image": false, "has_video": true, "height": 1080, "interlaced_frame": false, "metadata": {"com.android.version": "8.0.0", "compatible_brands": "isommp42", "creation_time": "2019-03-12T16:59:02.000000Z", "handler_name": "SoundHandle", "language": "eng", "major_brand": "mp42", "minor_version": "0", "rotate": "270"}, "path": "/home/lordacil/Downloads/rental/20190312_235850.mp4", "pixel_format": 0, "pixel_ratio": {"den": 1, "num": 1}, "sample_rate": 48000, "top_field_first": true, "type": "FFmpegReader", "vcodec": "h264", "video_bit_rate": 2149737, "video_length": "322", "video_stream_index": 0, "video_timebase": {"den": 90000, "num": 1}, "width": 1920}, "rotation": {"Points": [{"co": {"X": 1.0, "Y": 270.0}, "interpolation": 2}]}, "scale": 1, "scale_x": {"Points": [{"co": {"X": 1.0, "Y": 1.0}, "interpolation": 2}]}, "scale_y": {"Points": [{"co": {"X": 1.0, "Y": 1.0}, "interpolation": 2}]}, "shear_x": {"Points": [{"co": {"X": 1.0, "Y": 0.0}, "interpolation": 2}]}, "shear_y": {"Points": [{"co": {"X": 1.0, "Y": 0.0}, "interpolation": 2}]}, "start": 4.88, "time": {"Points": [{"co": {"X": 1.0, "Y": 1.0}, "interpolation": 2}]}, "volume": {"Points": [{"co": {"X": 1.0, "Y": 1.0}, "interpolation": 2}]}, "wave_color": {"alpha": {"Points": [{"co": {"X": 1.0, "Y": 255.0}, "handle_left": {"X": 0.5, "Y": 1.0}, "handle_right": {"X": 0.5, "Y": 0.0}, "handle_type": 0, "interpolation": 0}]}, "blue": {"Points": [{"co": {"X": 1.0, "Y": 255.0}, "handle_left": {"X": 0.5, "Y": 1.0}, "handle_right": {"X": 0.5, "Y": 0.0}, "handle_type": 0, "interpolation": 0}]}, "green": {"Points": [{"co": {"X": 1.0, "Y": 123.0}, "handle_left": {"X": 0.5, "Y": 1.0}, "handle_right": {"X": 0.5, "Y": 0.0}, "handle_type": 0, "interpolation": 0}]}, "red": {"Points": [{"co": {"X": 1.0, "Y": 0.0}, "handle_left": {"X": 0.5, "Y": 1.0}, "handle_right": {"X": 0.5, "Y": 0.0}, "handle_type": 0, "interpolation": 0}]}}, "waveform": false, "file_id": "IKWQS8ASAE", "title": "20190312_235850.mp4", "image": "/home/lordacil/.openshot_qt/thumbnail/2EV5X2F5QY-146.png", "id": "2EV5X2F5QY"}}, {"type": "update", "key": ["clips", {"id": "FAXXNCRSNI"}], "value": {"id": "FAXXNCRSNI", "layer": 1, "position": 9.4, "image": "/usr/lib/python3.7/site-packages/openshot_qt/images/AudioThumbnail.png", "start": 78.84, "end": 94.52}, "partial": false, "old_values": {"alpha": {"Points": [{"co": {"X": 1.0, "Y": 1.0}, "interpolation": 2}]}, "anchor": 0, "channel_filter": {"Points": [{"co": {"X": 1.0, "Y": -1.0}, "interpolation": 2}]}, "channel_mapping": {"Points": [{"co": {"X": 1.0, "Y": -1.0}, "interpolation": 2}]}, "crop_height": {"Points": [{"co": {"X": 1.0, "Y": -1.0}, "interpolation": 2}]}, "crop_width": {"Points": [{"co": {"X": 1.0, "Y": -1.0}, "interpolation": 2}]}, "crop_x": {"Points": [{"co": {"X": 1.0, "Y": 0.0}, "interpolation": 2}]}, "crop_y": {"Points": [{"co": {"X": 1.0, "Y": 0.0}, "interpolation": 2}]}, "display": 0, "duration": 280.0559997558594, "effects": [], "end": 93.48, "gravity": 4, "has_audio": {"Points": [{"co": {"X": 1.0, "Y": -1.0}, "interpolation": 2}]}, "has_video": {"Points": [{"co": {"X": 1.0, "Y": -1.0}, "interpolation": 2}]}, "id": "FAXXNCRSNI", "layer": 1, "location_x": {"Points": [{"co": {"X": 1.0, "Y": 0.0}, "interpolation": 2}]}, "location_y": {"Points": [{"co": {"X": 1.0, "Y": 0.0}, "interpolation": 2}]}, "mixing": 0, "perspective_c1_x": {"Points": [{"co": {"X": 1.0, "Y": -1.0}, "interpolation": 2}]}, "perspective_c1_y": {"Points": [{"co": {"X": 1.0, "Y": -1.0}, "interpolation": 2}]}, "perspective_c2_x": {"Points": [{"co": {"X": 1.0, "Y": -1.0}, "interpolation": 2}]}, "perspective_c2_y": {"Points": [{"co": {"X": 1.0, "Y": -1.0}, "interpolation": 2}]}, "perspective_c3_x": {"Points": [{"co": {"X": 1.0, "Y": -1.0}, "interpolation": 2}]}, "perspective_c3_y": {"Points": [{"co": {"X": 1.0, "Y": -1.0}, "interpolation": 2}]}, "perspective_c4_x": {"Points": [{"co": {"X": 1.0, "Y": -1.0}, "interpolation": 2}]}, "perspective_c4_y": {"Points": [{"co": {"X": 1.0, "Y": -1.0}, "interpolation": 2}]}, "position": 9.4, "reader": {"acodec": "mp3float", "audio_bit_rate": 118231, "audio_stream_index": 0, "audio_timebase": {"den": 14112000, "num": 1}, "channel_layout": 3, "channels": 2, "display_ratio": {"den": 1, "num": 1}, "duration": 280.0559997558594, "file_size": "4138941", "fps": {"den": 1, "num": 24}, "has_audio": true, "has_single_image": false, "has_video": false, "height": 480, "interlaced_frame": false, "metadata": {"encoder": "Lavf58.20.100"}, "path": "/home/lordacil/Videos/kimino.mp3", "pixel_format": -1, "pixel_ratio": {"den": 1, "num": 1}, "sample_rate": 48000, "top_field_first": true, "type": "FFmpegReader", "vcodec": "", "video_bit_rate": 0, "video_length": "6721", "video_stream_index": -1, "video_timebase": {"den": 24, "num": 1}, "width": 720}, "rotation": {"Points": [{"co": {"X": 1.0, "Y": 0.0}, "interpolation": 2}]}, "scale": 1, "scale_x": {"Points": [{"co": {"X": 1.0, "Y": 1.0}, "interpolation": 2}]}, "scale_y": {"Points": [{"co": {"X": 1.0, "Y": 1.0}, "interpolation": 2}]}, "shear_x": {"Points": [{"co": {"X": 1.0, "Y": 0.0}, "interpolation": 2}]}, "shear_y": {"Points": [{"co": {"X": 1.0, "Y": 0.0}, "interpolation": 2}]}, "start": 78.84, "time": {"Points": [{"co": {"X": 1.0, "Y": 1.0}, "interpolation": 2}]}, "volume": {"Points": [{"co": {"X": 1.0, "Y": 1.0}, "interpolation": 2}]}, "wave_color": {"alpha": {"Points": [{"co": {"X": 1.0, "Y": 255.0}, "handle_left": {"X": 0.5, "Y": 1.0}, "handle_right": {"X": 0.5, "Y": 0.0}, "handle_type": 0, "interpolation": 0}]}, "blue": {"Points": [{"co": {"X": 1.0, "Y": 255.0}, "handle_left": {"X": 0.5, "Y": 1.0}, "handle_right": {"X": 0.5, "Y": 0.0}, "handle_type": 0, "interpolation": 0}]}, "green": {"Points": [{"co": {"X": 1.0, "Y": 123.0}, "handle_left": {"X": 0.5, "Y": 1.0}, "handle_right": {"X": 0.5, "Y": 0.0}, "handle_type": 0, "interpolation": 0}]}, "red": {"Points": [{"co": {"X": 1.0, "Y": 0.0}, "handle_left": {"X": 0.5, "Y": 1.0}, "handle_right": {"X": 0.5, "Y": 0.0}, "handle_type": 0, "interpolation": 0}]}}, "waveform": false, "file_id": "JCL0SJYIR0", "title": "kimino.mp3", "image": "/usr/lib/python3.7/site-packages/openshot_qt/images/AudioThumbnail.png"}}, {"type": "update", "key": ["clips", {"id": "N2KC00SZN7"}], "value": {"scale_y": {"Points": [{"co": {"X": 1.0, "Y": 1.0}, "interpolation": 2}, {"co": {"X": 6, "Y": 1.2924528301886793}, "interpolation": 0}]}}, "partial": false, "old_values": {"alpha": {"Points": [{"co": {"X": 1.0, "Y": 1.0}, "interpolation": 2}]}, "anchor": 0, "channel_filter": {"Points": [{"co": {"X": 1.0, "Y": -1.0}, "interpolation": 2}]}, "channel_mapping": {"Points": [{"co": {"X": 1.0, "Y": -1.0}, "interpolation": 2}]}, "crop_height": {"Points": [{"co": {"X": 1.0, "Y": -1.0}, "interpolation": 2}]}, "crop_width": {"Points": [{"co": {"X": 1.0, "Y": -1.0}, "interpolation": 2}]}, "crop_x": {"Points": [{"co": {"X": 1.0, "Y": 0.0}, "interpolation": 2}]}, "crop_y": {"Points": [{"co": {"X": 1.0, "Y": 0.0}, "interpolation": 2}]}, "display": 0, "duration": 86400.0, "effects": [], "end": 1.6, "gravity": 4, "has_audio": {"Points": [{"co": {"X": 1.0, "Y": -1.0}, "interpolation": 2}]}, "has_video": {"Points": [{"co": {"X": 1.0, "Y": -1.0}, "interpolation": 2}]}, "id": "N2KC00SZN7", "layer": 0, "location_x": {"Points": [{"co": {"X": 1.0, "Y": 0.0}, "interpolation": 2}]}, "location_y": {"Points": [{"co": {"X": 1.0, "Y": 0.0}, "interpolation": 2}]}, "mixing": 0, "perspective_c1_x": {"Points": [{"co": {"X": 1.0, "Y": -1.0}, "interpolation": 2}]}, "perspective_c1_y": {"Points": [{"co": {"X": 1.0, "Y": -1.0}, "interpolation": 2}]}, "perspective_c2_x": {"Points": [{"co": {"X": 1.0, "Y": -1.0}, "interpolation": 2}]}, "perspective_c2_y": {"Points": [{"co": {"X": 1.0, "Y": -1.0}, "interpolation": 2}]}, "perspective_c3_x": {"Points": [{"co": {"X": 1.0, "Y": -1.0}, "interpolation": 2}]}, "perspective_c3_y": {"Points": [{"co": {"X": 1.0, "Y": -1.0}, "interpolation": 2}]}, "perspective_c4_x": {"Points": [{"co": {"X": 1.0, "Y": -1.0}, "interpolation": 2}]}, "perspective_c4_y": {"Points": [{"co": {"X": 1.0, "Y": -1.0}, "interpolation": 2}]}, "position": 1.12, "reader": {"acodec": "", "audio_bit_rate": 0, "audio_stream_index": -1, "audio_timebase": {"den": 1, "num": 1}, "channel_layout": 4, "channels": 0, "display_ratio": {"den": 709, "num": 391}, "duration": 86400.0, "file_size": "1108876", "fps": {"den": 1, "num": 30}, "has_audio": false, "has_single_image": true, "has_video": true, "height": 709, "interlaced_frame": false, "metadata": {}, "path": "/home/lordacil/Downloads/rental/wa1.png", "pixel_format": -1, "pixel_ratio": {"den": 1, "num": 1}, "sample_rate": 0, "top_field_first": true, "type": "QtImageReader", "vcodec": "", "video_bit_rate": 0, "video_length": "2592000", "video_stream_index": -1, "video_timebase": {"den": 30, "num": 1}, "width": 391}, "rotation": {"Points": [{"co": {"X": 1.0, "Y": 0.0}, "interpolation": 2}]}, "scale": 1, "scale_x": {"Points": [{"co": {"X": 1.0, "Y": 1.0}, "interpolation": 2}]}, "scale_y": {"Points": [{"co": {"X": 1.0, "Y": 1.0}, "interpolation": 2}]}, "shear_x": {"Points": [{"co": {"X": 1.0, "Y": 0.0}, "interpolation": 2}]}, "shear_y": {"Points": [{"co": {"X": 1.0, "Y": 0.0}, "interpolation": 2}]}, "start": 0, "time": {"Points": [{"co": {"X": 1.0, "Y": 1.0}, "interpolation": 2}]}, "volume": {"Points": [{"co": {"X": 1.0, "Y": 1.0}, "interpolation": 2}]}, "wave_color": {"alpha": {"Points": [{"co": {"X": 1.0, "Y": 255.0}, "handle_left": {"X": 0.5, "Y": 1.0}, "handle_right": {"X": 0.5, "Y": 0.0}, "handle_type": 0, "interpolation": 0}]}, "blue": {"Points": [{"co": {"X": 1.0, "Y": 255.0}, "handle_left": {"X": 0.5, "Y": 1.0}, "handle_right": {"X": 0.5, "Y": 0.0}, "handle_type": 0, "interpolation": 0}]}, "green": {"Points": [{"co": {"X": 1.0, "Y": 123.0}, "handle_left": {"X": 0.5, "Y": 1.0}, "handle_right": {"X": 0.5, "Y": 0.0}, "handle_type": 0, "interpolation": 0}]}, "red": {"Points": [{"co": {"X": 1.0, "Y": 0.0}, "handle_left": {"X": 0.5, "Y": 1.0}, "handle_right": {"X": 0.5, "Y": 0.0}, "handle_type": 0, "interpolation": 0}]}}, "waveform": false, "file_id": "0LJKUK8OVG", "title": "wa1.png", "image": "/home/lordacil/.openshot_qt/thumbnail/0LJKUK8OVG.png"}}, {"type": "update", "key": ["clips", {"id": "N2KC00SZN7"}], "value": {"location_y": {"Points": [{"co": {"X": 1.0, "Y": 0.0}, "interpolation": 2}, {"co": {"X": 6, "Y": 0.07075471698113207}, "interpolation": 0}]}}, "partial": false, "old_values": {"alpha": {"Points": [{"co": {"X": 1.0, "Y": 1.0}, "interpolation": 2}]}, "anchor": 0, "channel_filter": {"Points": [{"co": {"X": 1.0, "Y": -1.0}, "interpolation": 2}]}, "channel_mapping": {"Points": [{"co": {"X": 1.0, "Y": -1.0}, "interpolation": 2}]}, "crop_height": {"Points": [{"co": {"X": 1.0, "Y": -1.0}, "interpolation": 2}]}, "crop_width": {"Points": [{"co": {"X": 1.0, "Y": -1.0}, "interpolation": 2}]}, "crop_x": {"Points": [{"co": {"X": 1.0, "Y": 0.0}, "interpolation": 2}]}, "crop_y": {"Points": [{"co": {"X": 1.0, "Y": 0.0}, "interpolation": 2}]}, "display": 0, "duration": 86400.0, "effects": [], "end": 1.6, "gravity": 4, "has_audio": {"Points": [{"co": {"X": 1.0, "Y": -1.0}, "interpolation": 2}]}, "has_video": {"Points": [{"co": {"X": 1.0, "Y": -1.0}, "interpolation": 2}]}, "id": "N2KC00SZN7", "layer": 0, "location_x": {"Points": [{"co": {"X": 1.0, "Y": 0.0}, "interpolation": 2}]}, "location_y": {"Points": [{"co": {"X": 1.0, "Y": 0.0}, "interpolation": 2}]}, "mixing": 0, "perspective_c1_x": {"Points": [{"co": {"X": 1.0, "Y": -1.0}, "interpolation": 2}]}, "perspective_c1_y": {"Points": [{"co": {"X": 1.0, "Y": -1.0}, "interpolation": 2}]}, "perspective_c2_x": {"Points": [{"co": {"X": 1.0, "Y": -1.0}, "interpolation": 2}]}, "perspective_c2_y": {"Points": [{"co": {"X": 1.0, "Y": -1.0}, "interpolation": 2}]}, "perspective_c3_x": {"Points": [{"co": {"X": 1.0, "Y": -1.0}, "interpolation": 2}]}, "perspective_c3_y": {"Points": [{"co": {"X": 1.0, "Y": -1.0}, "interpolation": 2}]}, "perspective_c4_x": {"Points": [{"co": {"X": 1.0, "Y": -1.0}, "interpolation": 2}]}, "perspective_c4_y": {"Points": [{"co": {"X": 1.0, "Y": -1.0}, "interpolation": 2}]}, "position": 1.12, "reader": {"acodec": "", "audio_bit_rate": 0, "audio_stream_index": -1, "audio_timebase": {"den": 1, "num": 1}, "channel_layout": 4, "channels": 0, "display_ratio": {"den": 709, "num": 391}, "duration": 86400.0, "file_size": "1108876", "fps": {"den": 1, "num": 30}, "has_audio": false, "has_single_image": true, "has_video": true, "height": 709, "interlaced_frame": false, "metadata": {}, "path": "/home/lordacil/Downloads/rental/wa1.png", "pixel_format": -1, "pixel_ratio": {"den": 1, "num": 1}, "sample_rate": 0, "top_field_first": true, "type": "QtImageReader", "vcodec": "", "video_bit_rate": 0, "video_length": "2592000", "video_stream_index": -1, "video_timebase": {"den": 30, "num": 1}, "width": 391}, "rotation": {"Points": [{"co": {"X": 1.0, "Y": 0.0}, "interpolation": 2}]}, "scale": 1, "scale_x": {"Points": [{"co": {"X": 1.0, "Y": 1.0}, "interpolation": 2}, {"co": {"X": 6, "Y": 2.675531914893617}, "interpolation": 0}]}, "scale_y": {"Points": [{"co": {"X": 1.0, "Y": 1.0}, "interpolation": 2}, {"co": {"X": 6, "Y": 1.2924528301886793}, "interpolation": 0}]}, "shear_x": {"Points": [{"co": {"X": 1.0, "Y": 0.0}, "interpolation": 2}]}, "shear_y": {"Points": [{"co": {"X": 1.0, "Y": 0.0}, "interpolation": 2}]}, "start": 0, "time": {"Points": [{"co": {"X": 1.0, "Y": 1.0}, "interpolation": 2}]}, "volume": {"Points": [{"co": {"X": 1.0, "Y": 1.0}, "interpolation": 2}]}, "wave_color": {"alpha": {"Points": [{"co": {"X": 1.0, "Y": 255.0}, "handle_left": {"X": 0.5, "Y": 1.0}, "handle_right": {"X": 0.5, "Y": 0.0}, "handle_type": 0, "interpolation": 0}]}, "blue": {"Points": [{"co": {"X": 1.0, "Y": 255.0}, "handle_left": {"X": 0.5, "Y": 1.0}, "handle_right": {"X": 0.5, "Y": 0.0}, "handle_type": 0, "interpolation": 0}]}, "green": {"Points": [{"co": {"X": 1.0, "Y": 123.0}, "handle_left": {"X": 0.5, "Y": 1.0}, "handle_right": {"X": 0.5, "Y": 0.0}, "handle_type": 0, "interpolation": 0}]}, "red": {"Points": [{"co": {"X": 1.0, "Y": 0.0}, "handle_left": {"X": 0.5, "Y": 1.0}, "handle_right": {"X": 0.5, "Y": 0.0}, "handle_type": 0, "interpolation": 0}]}}, "waveform": false, "file_id": "0LJKUK8OVG", "title": "wa1.png", "image": "/home/lordacil/.openshot_qt/thumbnail/0LJKUK8OVG.png"}}, {"type": "update", "key": ["clips", {"id": "CVRMV1KJSY"}], "value": {"scale_y": {"Points": [{"co": {"X": 1.0, "Y": 1.0}, "interpolation": 2}, {"co": {"X": 11, "Y": 1.5}, "interpolation": 0}]}}, "partial": false, "old_values": {"alpha": {"Points": [{"co": {"X": 1.0, "Y": 1.0}, "interpolation": 2}]}, "anchor": 0, "channel_filter": {"Points": [{"co": {"X": 1.0, "Y": -1.0}, "interpolation": 2}]}, "channel_mapping": {"Points": [{"co": {"X": 1.0, "Y": -1.0}, "interpolation": 2}]}, "crop_height": {"Points": [{"co": {"X": 1.0, "Y": -1.0}, "interpolation": 2}]}, "crop_width": {"Points": [{"co": {"X": 1.0, "Y": -1.0}, "interpolation": 2}]}, "crop_x": {"Points": [{"co": {"X": 1.0, "Y": 0.0}, "interpolation": 2}]}, "crop_y": {"Points": [{"co": {"X": 1.0, "Y": 0.0}, "interpolation": 2}]}, "display": 0, "duration": 86400.0, "effects": [], "end": 1.56, "gravity": 4, "has_audio": {"Points": [{"co": {"X": 1.0, "Y": -1.0}, "interpolation": 2}]}, "has_video": {"Points": [{"co": {"X": 1.0, "Y": -1.0}, "interpolation": 2}]}, "id": "CVRMV1KJSY", "layer": 0, "location_x": {"Points": [{"co": {"X": 1.0, "Y": 0.0}, "interpolation": 2}]}, "location_y": {"Points": [{"co": {"X": 1.0, "Y": 0.0}, "interpolation": 2}]}, "mixing": 0, "perspective_c1_x": {"Points": [{"co": {"X": 1.0, "Y": -1.0}, "interpolation": 2}]}, "perspective_c1_y": {"Points": [{"co": {"X": 1.0, "Y": -1.0}, "interpolation": 2}]}, "perspective_c2_x": {"Points": [{"co": {"X": 1.0, "Y": -1.0}, "interpolation": 2}]}, "perspective_c2_y": {"Points": [{"co": {"X": 1.0, "Y": -1.0}, "interpolation": 2}]}, "perspective_c3_x": {"Points": [{"co": {"X": 1.0, "Y": -1.0}, "interpolation": 2}]}, "perspective_c3_y": {"Points": [{"co": {"X": 1.0, "Y": -1.0}, "interpolation": 2}]}, "perspective_c4_x": {"Points": [{"co": {"X": 1.0, "Y": -1.0}, "interpolation": 2}]}, "perspective_c4_y": {"Points": [{"co": {"X": 1.0, "Y": -1.0}, "interpolation": 2}]}, "position": 2.72, "reader": {"acodec": "", "audio_bit_rate": 0, "audio_stream_index": -1, "audio_timebase": {"den": 1, "num": 1}, "channel_layout": 4, "channels": 0, "display_ratio": {"den": 709, "num": 391}, "duration": 86400.0, "file_size": "1108876", "fps": {"den": 1, "num": 30}, "has_audio": false, "has_single_image": true, "has_video": true, "height": 709, "interlaced_frame": false, "metadata": {}, "path": "/home/lordacil/Downloads/rental/wa2.png", "pixel_format": -1, "pixel_ratio": {"den": 1, "num": 1}, "sample_rate": 0, "top_field_first": true, "type": "QtImageReader", "vcodec": "", "video_bit_rate": 0, "video_length": "2592000", "video_stream_index": -1, "video_timebase": {"den": 30, "num": 1}, "width": 391}, "rotation": {"Points": [{"co": {"X": 1.0, "Y": 0.0}, "interpolation": 2}]}, "scale": 1, "scale_x": {"Points": [{"co": {"X": 1.0, "Y": 1.0}, "interpolation": 2}]}, "scale_y": {"Points": [{"co": {"X": 1.0, "Y": 1.0}, "interpolation": 2}]}, "shear_x": {"Points": [{"co": {"X": 1.0, "Y": 0.0}, "interpolation": 2}]}, "shear_y": {"Points": [{"co": {"X": 1.0, "Y": 0.0}, "interpolation": 2}]}, "start": 0, "time": {"Points": [{"co": {"X": 1.0, "Y": 1.0}, "interpolation": 2}]}, "volume": {"Points": [{"co": {"X": 1.0, "Y": 1.0}, "interpolation": 2}]}, "wave_color": {"alpha": {"Points": [{"co": {"X": 1.0, "Y": 255.0}, "handle_left": {"X": 0.5, "Y": 1.0}, "handle_right": {"X": 0.5, "Y": 0.0}, "handle_type": 0, "interpolation": 0}]}, "blue": {"Points": [{"co": {"X": 1.0, "Y": 255.0}, "handle_left": {"X": 0.5, "Y": 1.0}, "handle_right": {"X": 0.5, "Y": 0.0}, "handle_type": 0, "interpolation": 0}]}, "green": {"Points": [{"co": {"X": 1.0, "Y": 123.0}, "handle_left": {"X": 0.5, "Y": 1.0}, "handle_right": {"X": 0.5, "Y": 0.0}, "handle_type": 0, "interpolation": 0}]}, "red": {"Points": [{"co": {"X": 1.0, "Y": 0.0}, "handle_left": {"X": 0.5, "Y": 1.0}, "handle_right": {"X": 0.5, "Y": 0.0}, "handle_type": 0, "interpolation": 0}]}}, "waveform": false, "file_id": "3L980KKA17", "title": "wa2.png", "image": "/home/lordacil/.openshot_qt/thumbnail/3L980KKA17.png"}}, {"type": "update", "key": ["clips", {"id": "CVRMV1KJSY"}], "value": {"location_y": {"Points": [{"co": {"X": 1.0, "Y": 0.0}, "interpolation": 2}, {"co": {"X": 11, "Y": 0.1179245283018868}, "interpolation": 0}]}}, "partial": false, "old_values": {"alpha": {"Points": [{"co": {"X": 1.0, "Y": 1.0}, "interpolation": 2}]}, "anchor": 0, "channel_filter": {"Points": [{"co": {"X": 1.0, "Y": -1.0}, "interpolation": 2}]}, "channel_mapping": {"Points": [{"co": {"X": 1.0, "Y": -1.0}, "interpolation": 2}]}, "crop_height": {"Points": [{"co": {"X": 1.0, "Y": -1.0}, "interpolation": 2}]}, "crop_width": {"Points": [{"co": {"X": 1.0, "Y": -1.0}, "interpolation": 2}]}, "crop_x": {"Points": [{"co": {"X": 1.0, "Y": 0.0}, "interpolation": 2}]}, "crop_y": {"Points": [{"co": {"X": 1.0, "Y": 0.0}, "interpolation": 2}]}, "display": 0, "duration": 86400.0, "effects": [], "end": 1.56, "gravity": 4, "has_audio": {"Points": [{"co": {"X": 1.0, "Y": -1.0}, "interpolation": 2}]}, "has_video": {"Points": [{"co": {"X": 1.0, "Y": -1.0}, "interpolation": 2}]}, "id": "CVRMV1KJSY", "layer": 0, "location_x": {"Points": [{"co": {"X": 1.0, "Y": 0.0}, "interpolation": 2}]}, "location_y": {"Points": [{"co": {"X": 1.0, "Y": 0.0}, "interpolation": 2}]}, "mixing": 0, "perspective_c1_x": {"Points": [{"co": {"X": 1.0, "Y": -1.0}, "interpolation": 2}]}, "perspective_c1_y": {"Points": [{"co": {"X": 1.0, "Y": -1.0}, "interpolation": 2}]}, "perspective_c2_x": {"Points": [{"co": {"X": 1.0, "Y": -1.0}, "interpolation": 2}]}, "perspective_c2_y": {"Points": [{"co": {"X": 1.0, "Y": -1.0}, "interpolation": 2}]}, "perspective_c3_x": {"Points": [{"co": {"X": 1.0, "Y": -1.0}, "interpolation": 2}]}, "perspective_c3_y": {"Points": [{"co": {"X": 1.0, "Y": -1.0}, "interpolation": 2}]}, "perspective_c4_x": {"Points": [{"co": {"X": 1.0, "Y": -1.0}, "interpolation": 2}]}, "perspective_c4_y": {"Points": [{"co": {"X": 1.0, "Y": -1.0}, "interpolation": 2}]}, "position": 2.72, "reader": {"acodec": "", "audio_bit_rate": 0, "audio_stream_index": -1, "audio_timebase": {"den": 1, "num": 1}, "channel_layout": 4, "channels": 0, "display_ratio": {"den": 709, "num": 391}, "duration": 86400.0, "file_size": "1108876", "fps": {"den": 1, "num": 30}, "has_audio": false, "has_single_image": true, "has_video": true, "height": 709, "interlaced_frame": false, "metadata": {}, "path": "/home/lordacil/Downloads/rental/wa2.png", "pixel_format": -1, "pixel_ratio": {"den": 1, "num": 1}, "sample_rate": 0, "top_field_first": true, "type": "QtImageReader", "vcodec": "", "video_bit_rate": 0, "video_length": "2592000", "video_stream_index": -1, "video_timebase": {"den": 30, "num": 1}, "width": 391}, "rotation": {"Points": [{"co": {"X": 1.0, "Y": 0.0}, "interpolation": 2}]}, "scale": 1, "scale_x": {"Points": [{"co": {"X": 1.0, "Y": 1.0}, "interpolation": 2}, {"co": {"X": 11, "Y": 1.648936170212766}, "interpolation": 0}]}, "scale_y": {"Points": [{"co": {"X": 1.0, "Y": 1.0}, "interpolation": 2}, {"co": {"X": 11, "Y": 1.5}, "interpolation": 0}]}, "shear_x": {"Points": [{"co": {"X": 1.0, "Y": 0.0}, "interpolation": 2}]}, "shear_y": {"Points": [{"co": {"X": 1.0, "Y": 0.0}, "interpolation": 2}]}, "start": 0, "time": {"Points": [{"co": {"X": 1.0, "Y": 1.0}, "interpolation": 2}]}, "volume": {"Points": [{"co": {"X": 1.0, "Y": 1.0}, "interpolation": 2}]}, "wave_color": {"alpha": {"Points": [{"co": {"X": 1.0, "Y": 255.0}, "handle_left": {"X": 0.5, "Y": 1.0}, "handle_right": {"X": 0.5, "Y": 0.0}, "handle_type": 0, "interpolation": 0}]}, "blue": {"Points": [{"co": {"X": 1.0, "Y": 255.0}, "handle_left": {"X": 0.5, "Y": 1.0}, "handle_right": {"X": 0.5, "Y": 0.0}, "handle_type": 0, "interpolation": 0}]}, "green": {"Points": [{"co": {"X": 1.0, "Y": 123.0}, "handle_left": {"X": 0.5, "Y": 1.0}, "handle_right": {"X": 0.5, "Y": 0.0}, "handle_type": 0, "interpolation": 0}]}, "red": {"Points": [{"co": {"X": 1.0, "Y": 0.0}, "handle_left": {"X": 0.5, "Y": 1.0}, "handle_right": {"X": 0.5, "Y": 0.0}, "handle_type": 0, "interpolation": 0}]}}, "waveform": false, "file_id": "3L980KKA17", "title": "wa2.png", "image": "/home/lordacil/.openshot_qt/thumbnail/3L980KKA17.png"}}, {"type": "update", "key": ["clips", {"id": "CVRMV1KJSY"}], "value": {"scale_x": {"Points": [{"co": {"X": 1.0, "Y": 1.0}, "interpolation": 2}, {"co": {"X": 11, "Y": 1.648936170212766}, "interpolation": 0}, {"co": {"X": 20, "Y": 2.5423409919492266}, "interpolation": 0}]}}, "partial": false, "old_values": {"alpha": {"Points": [{"co": {"X": 1.0, "Y": 1.0}, "interpolation": 2}]}, "anchor": 0, "channel_filter": {"Points": [{"co": {"X": 1.0, "Y": -1.0}, "interpolation": 2}]}, "channel_mapping": {"Points": [{"co": {"X": 1.0, "Y": -1.0}, "interpolation": 2}]}, "crop_height": {"Points": [{"co": {"X": 1.0, "Y": -1.0}, "interpolation": 2}]}, "crop_width": {"Points": [{"co": {"X": 1.0, "Y": -1.0}, "interpolation": 2}]}, "crop_x": {"Points": [{"co": {"X": 1.0, "Y": 0.0}, "interpolation": 2}]}, "crop_y": {"Points": [{"co": {"X": 1.0, "Y": 0.0}, "interpolation": 2}]}, "display": 0, "duration": 86400.0, "effects": [], "end": 1.56, "gravity": 4, "has_audio": {"Points": [{"co": {"X": 1.0, "Y": -1.0}, "interpolation": 2}]}, "has_video": {"Points": [{"co": {"X": 1.0, "Y": -1.0}, "interpolation": 2}]}, "id": "CVRMV1KJSY", "layer": 0, "location_x": {"Points": [{"co": {"X": 1.0, "Y": 0.0}, "interpolation": 2}, {"co": {"X": 11, "Y": 0.013297872340425532}, "interpolation": 0}]}, "location_y": {"Points": [{"co": {"X": 1.0, "Y": 0.0}, "interpolation": 2}, {"co": {"X": 11, "Y": 0.1179245283018868}, "interpolation": 0}]}, "mixing": 0, "perspective_c1_x": {"Points": [{"co": {"X": 1.0, "Y": -1.0}, "interpolation": 2}]}, "perspective_c1_y": {"Points": [{"co": {"X": 1.0, "Y": -1.0}, "interpolation": 2}]}, "perspective_c2_x": {"Points": [{"co": {"X": 1.0, "Y": -1.0}, "interpolation": 2}]}, "perspective_c2_y": {"Points": [{"co": {"X": 1.0, "Y": -1.0}, "interpolation": 2}]}, "perspective_c3_x": {"Points": [{"co": {"X": 1.0, "Y": -1.0}, "interpolation": 2}]}, "perspective_c3_y": {"Points": [{"co": {"X": 1.0, "Y": -1.0}, "interpolation": 2}]}, "perspective_c4_x": {"Points": [{"co": {"X": 1.0, "Y": -1.0}, "interpolation": 2}]}, "perspective_c4_y": {"Points": [{"co": {"X": 1.0, "Y": -1.0}, "interpolation": 2}]}, "position": 2.72, "reader": {"acodec": "", "audio_bit_rate": 0, "audio_stream_index": -1, "audio_timebase": {"den": 1, "num": 1}, "channel_layout": 4, "channels": 0, "display_ratio": {"den": 709, "num": 391}, "duration": 86400.0, "file_size": "1108876", "fps": {"den": 1, "num": 30}, "has_audio": false, "has_single_image": true, "has_video": true, "height": 709, "interlaced_frame": false, "metadata": {}, "path": "/home/lordacil/Downloads/rental/wa2.png", "pixel_format": -1, "pixel_ratio": {"den": 1, "num": 1}, "sample_rate": 0, "top_field_first": true, "type": "QtImageReader", "vcodec": "", "video_bit_rate": 0, "video_length": "2592000", "video_stream_index": -1, "video_timebase": {"den": 30, "num": 1}, "width": 391}, "rotation": {"Points": [{"co": {"X": 1.0, "Y": 0.0}, "interpolation": 2}]}, "scale": 1, "scale_x": {"Points": [{"co": {"X": 1.0, "Y": 1.0}, "interpolation": 2}, {"co": {"X": 11, "Y": 1.648936170212766}, "interpolation": 0}]}, "scale_y": {"Points": [{"co": {"X": 1.0, "Y": 1.0}, "interpolation": 2}, {"co": {"X": 11, "Y": 1.5}, "interpolation": 0}]}, "shear_x": {"Points": [{"co": {"X": 1.0, "Y": 0.0}, "interpolation": 2}]}, "shear_y": {"Points": [{"co": {"X": 1.0, "Y": 0.0}, "interpolation": 2}]}, "start": 0, "time": {"Points": [{"co": {"X": 1.0, "Y": 1.0}, "interpolation": 2}]}, "volume": {"Points": [{"co": {"X": 1.0, "Y": 1.0}, "interpolation": 2}]}, "wave_color": {"alpha": {"Points": [{"co": {"X": 1.0, "Y": 255.0}, "handle_left": {"X": 0.5, "Y": 1.0}, "handle_right": {"X": 0.5, "Y": 0.0}, "handle_type": 0, "interpolation": 0}]}, "blue": {"Points": [{"co": {"X": 1.0, "Y": 255.0}, "handle_left": {"X": 0.5, "Y": 1.0}, "handle_right": {"X": 0.5, "Y": 0.0}, "handle_type": 0, "interpolation": 0}]}, "green": {"Points": [{"co": {"X": 1.0, "Y": 123.0}, "handle_left": {"X": 0.5, "Y": 1.0}, "handle_right": {"X": 0.5, "Y": 0.0}, "handle_type": 0, "interpolation": 0}]}, "red": {"Points": [{"co": {"X": 1.0, "Y": 0.0}, "handle_left": {"X": 0.5, "Y": 1.0}, "handle_right": {"X": 0.5, "Y": 0.0}, "handle_type": 0, "interpolation": 0}]}}, "waveform": false, "file_id": "3L980KKA17", "title": "wa2.png", "image": "/home/lordacil/.openshot_qt/thumbnail/3L980KKA17.png"}}, {"type": "update", "key": ["clips", {"id": "2D1LAE8O93"}], "value": {"scale_x": {"Points": [{"co": {"X": 1.0, "Y": 1.0}, "interpolation": 2}, {"co": {"X": 17, "Y": 2.654255319148936}, "interpolation": 0}]}}, "partial": false, "old_values": {"alpha": {"Points": [{"co": {"X": 1.0, "Y": 1.0}, "interpolation": 2}]}, "anchor": 0, "channel_filter": {"Points": [{"co": {"X": 1.0, "Y": -1.0}, "interpolation": 2}]}, "channel_mapping": {"Points": [{"co": {"X": 1.0, "Y": -1.0}, "interpolation": 2}]}, "crop_height": {"Points": [{"co": {"X": 1.0, "Y": -1.0}, "interpolation": 2}]}, "crop_width": {"Points": [{"co": {"X": 1.0, "Y": -1.0}, "interpolation": 2}]}, "crop_x": {"Points": [{"co": {"X": 1.0, "Y": 0.0}, "interpolation": 2}]}, "crop_y": {"Points": [{"co": {"X": 1.0, "Y": 0.0}, "interpolation": 2}]}, "display": 0, "duration": 86400.0, "effects": [], "end": 2.44, "gravity": 4, "has_audio": {"Points": [{"co": {"X": 1.0, "Y": -1.0}, "interpolation": 2}]}, "has_video": {"Points": [{"co": {"X": 1.0, "Y": -1.0}, "interpolation": 2}]}, "id": "2D1LAE8O93", "layer": 0, "location_x": {"Points": [{"co": {"X": 1.0, "Y": 0.0}, "interpolation": 2}]}, "location_y": {"Points": [{"co": {"X": 1.0, "Y": 0.0}, "interpolation": 2}]}, "mixing": 0, "perspective_c1_x": {"Points": [{"co": {"X": 1.0, "Y": -1.0}, "interpolation": 2}]}, "perspective_c1_y": {"Points": [{"co": {"X": 1.0, "Y": -1.0}, "interpolation": 2}]}, "perspective_c2_x": {"Points": [{"co": {"X": 1.0, "Y": -1.0}, "interpolation": 2}]}, "perspective_c2_y": {"Points": [{"co": {"X": 1.0, "Y": -1.0}, "interpolation": 2}]}, "perspective_c3_x": {"Points": [{"co": {"X": 1.0, "Y": -1.0}, "interpolation": 2}]}, "perspective_c3_y": {"Points": [{"co": {"X": 1.0, "Y": -1.0}, "interpolation": 2}]}, "perspective_c4_x": {"Points": [{"co": {"X": 1.0, "Y": -1.0}, "interpolation": 2}]}, "perspective_c4_y": {"Points": [{"co": {"X": 1.0, "Y": -1.0}, "interpolation": 2}]}, "position": 5.52, "reader": {"acodec": "", "audio_bit_rate": 0, "audio_stream_index": -1, "audio_timebase": {"den": 1, "num": 1}, "channel_layout": 4, "channels": 0, "display_ratio": {"den": 709, "num": 391}, "duration": 86400.0, "file_size": "1108876", "fps": {"den": 1, "num": 30}, "has_audio": false, "has_single_image": true, "has_video": true, "height": 709, "interlaced_frame": false, "metadata": {}, "path": "/home/lordacil/Downloads/rental/wa3.png", "pixel_format": -1, "pixel_ratio": {"den": 1, "num": 1}, "sample_rate": 0, "top_field_first": true, "type": "QtImageReader", "vcodec": "", "video_bit_rate": 0, "video_length": "2592000", "video_stream_index": -1, "video_timebase": {"den": 30, "num": 1}, "width": 391}, "rotation": {"Points": [{"co": {"X": 1.0, "Y": 0.0}, "interpolation": 2}]}, "scale": 1, "scale_x": {"Points": [{"co": {"X": 1.0, "Y": 1.0}, "interpolation": 2}]}, "scale_y": {"Points": [{"co": {"X": 1.0, "Y": 1.0}, "interpolation": 2}]}, "shear_x": {"Points": [{"co": {"X": 1.0, "Y": 0.0}, "interpolation": 2}]}, "shear_y": {"Points": [{"co": {"X": 1.0, "Y": 0.0}, "interpolation": 2}]}, "start": 0, "time": {"Points": [{"co": {"X": 1.0, "Y": 1.0}, "interpolation": 2}]}, "volume": {"Points": [{"co": {"X": 1.0, "Y": 1.0}, "interpolation": 2}]}, "wave_color": {"alpha": {"Points": [{"co": {"X": 1.0, "Y": 255.0}, "handle_left": {"X": 0.5, "Y": 1.0}, "handle_right": {"X": 0.5, "Y": 0.0}, "handle_type": 0, "interpolation": 0}]}, "blue": {"Points": [{"co": {"X": 1.0, "Y": 255.0}, "handle_left": {"X": 0.5, "Y": 1.0}, "handle_right": {"X": 0.5, "Y": 0.0}, "handle_type": 0, "interpolation": 0}]}, "green": {"Points": [{"co": {"X": 1.0, "Y": 123.0}, "handle_left": {"X": 0.5, "Y": 1.0}, "handle_right": {"X": 0.5, "Y": 0.0}, "handle_type": 0, "interpolation": 0}]}, "red": {"Points": [{"co": {"X": 1.0, "Y": 0.0}, "handle_left": {"X": 0.5, "Y": 1.0}, "handle_right": {"X": 0.5, "Y": 0.0}, "handle_type": 0, "interpolation": 0}]}}, "waveform": false, "file_id": "H68DFQTNFM", "title": "wa3.png", "image": "/home/lordacil/.openshot_qt/thumbnail/H68DFQTNFM.png"}}, {"type": "update", "key": ["clips", {"id": "2D1LAE8O93"}], "value": {"scale_y": {"Points": [{"co": {"X": 1.0, "Y": 1.0}, "interpolation": 2}, {"co": {"X": 17, "Y": 1.7830188679245282}, "interpolation": 0}]}}, "partial": false, "old_values": {"alpha": {"Points": [{"co": {"X": 1.0, "Y": 1.0}, "interpolation": 2}]}, "anchor": 0, "channel_filter": {"Points": [{"co": {"X": 1.0, "Y": -1.0}, "interpolation": 2}]}, "channel_mapping": {"Points": [{"co": {"X": 1.0, "Y": -1.0}, "interpolation": 2}]}, "crop_height": {"Points": [{"co": {"X": 1.0, "Y": -1.0}, "interpolation": 2}]}, "crop_width": {"Points": [{"co": {"X": 1.0, "Y": -1.0}, "interpolation": 2}]}, "crop_x": {"Points": [{"co": {"X": 1.0, "Y": 0.0}, "interpolation": 2}]}, "crop_y": {"Points": [{"co": {"X": 1.0, "Y": 0.0}, "interpolation": 2}]}, "display": 0, "duration": 86400.0, "effects": [], "end": 2.44, "gravity": 4, "has_audio": {"Points": [{"co": {"X": 1.0, "Y": -1.0}, "interpolation": 2}]}, "has_video": {"Points": [{"co": {"X": 1.0, "Y": -1.0}, "interpolation": 2}]}, "id": "2D1LAE8O93", "layer": 0, "location_x": {"Points": [{"co": {"X": 1.0, "Y": 0.0}, "interpolation": 2}]}, "location_y": {"Points": [{"co": {"X": 1.0, "Y": 0.0}, "interpolation": 2}]}, "mixing": 0, "perspective_c1_x": {"Points": [{"co": {"X": 1.0, "Y": -1.0}, "interpolation": 2}]}, "perspective_c1_y": {"Points": [{"co": {"X": 1.0, "Y": -1.0}, "interpolation": 2}]}, "perspective_c2_x": {"Points": [{"co": {"X": 1.0, "Y": -1.0}, "interpolation": 2}]}, "perspective_c2_y": {"Points": [{"co": {"X": 1.0, "Y": -1.0}, "interpolation": 2}]}, "perspective_c3_x": {"Points": [{"co": {"X": 1.0, "Y": -1.0}, "interpolation": 2}]}, "perspective_c3_y": {"Points": [{"co": {"X": 1.0, "Y": -1.0}, "interpolation": 2}]}, "perspective_c4_x": {"Points": [{"co": {"X": 1.0, "Y": -1.0}, "interpolation": 2}]}, "perspective_c4_y": {"Points": [{"co": {"X": 1.0, "Y": -1.0}, "interpolation": 2}]}, "position": 5.52, "reader": {"acodec": "", "audio_bit_rate": 0, "audio_stream_index": -1, "audio_timebase": {"den": 1, "num": 1}, "channel_layout": 4, "channels": 0, "display_ratio": {"den": 709, "num": 391}, "duration": 86400.0, "file_size": "1108876", "fps": {"den": 1, "num": 30}, "has_audio": false, "has_single_image": true, "has_video": true, "height": 709, "interlaced_frame": false, "metadata": {}, "path": "/home/lordacil/Downloads/rental/wa3.png", "pixel_format": -1, "pixel_ratio": {"den": 1, "num": 1}, "sample_rate": 0, "top_field_first": true, "type": "QtImageReader", "vcodec": "", "video_bit_rate": 0, "video_length": "2592000", "video_stream_index": -1, "video_timebase": {"den": 30, "num": 1}, "width": 391}, "rotation": {"Points": [{"co": {"X": 1.0, "Y": 0.0}, "interpolation": 2}]}, "scale": 1, "scale_x": {"Points": [{"co": {"X": 1.0, "Y": 1.0}, "interpolation": 2}, {"co": {"X": 17, "Y": 2.654255319148936}, "interpolation": 0}]}, "scale_y": {"Points": [{"co": {"X": 1.0, "Y": 1.0}, "interpolation": 2}]}, "shear_x": {"Points": [{"co": {"X": 1.0, "Y": 0.0}, "interpolation": 2}]}, "shear_y": {"Points": [{"co": {"X": 1.0, "Y": 0.0}, "interpolation": 2}]}, "start": 0, "time": {"Points": [{"co": {"X": 1.0, "Y": 1.0}, "interpolation": 2}]}, "volume": {"Points": [{"co": {"X": 1.0, "Y": 1.0}, "interpolation": 2}]}, "wave_color": {"alpha": {"Points": [{"co": {"X": 1.0, "Y": 255.0}, "handle_left": {"X": 0.5, "Y": 1.0}, "handle_right": {"X": 0.5, "Y": 0.0}, "handle_type": 0, "interpolation": 0}]}, "blue": {"Points": [{"co": {"X": 1.0, "Y": 255.0}, "handle_left": {"X": 0.5, "Y": 1.0}, "handle_right": {"X": 0.5, "Y": 0.0}, "handle_type": 0, "interpolation": 0}]}, "green": {"Points": [{"co": {"X": 1.0, "Y": 123.0}, "handle_left": {"X": 0.5, "Y": 1.0}, "handle_right": {"X": 0.5, "Y": 0.0}, "handle_type": 0, "interpolation": 0}]}, "red": {"Points": [{"co": {"X": 1.0, "Y": 0.0}, "handle_left": {"X": 0.5, "Y": 1.0}, "handle_right": {"X": 0.5, "Y": 0.0}, "handle_type": 0, "interpolation": 0}]}}, "waveform": false, "file_id": "H68DFQTNFM", "title": "wa3.png", "image": "/home/lordacil/.openshot_qt/thumbnail/H68DFQTNFM.png"}}, {"type": "update", "key": ["clips", {"id": "2D1LAE8O93"}], "value": {"location_y": {"Points": [{"co": {"X": 1.0, "Y": 0.0}, "interpolation": 2}, {"co": {"X": 17, "Y": 0.02830188679245283}, "interpolation": 0}]}}, "partial": false, "old_values": {"alpha": {"Points": [{"co": {"X": 1.0, "Y": 1.0}, "interpolation": 2}]}, "anchor": 0, "channel_filter": {"Points": [{"co": {"X": 1.0, "Y": -1.0}, "interpolation": 2}]}, "channel_mapping": {"Points": [{"co": {"X": 1.0, "Y": -1.0}, "interpolation": 2}]}, "crop_height": {"Points": [{"co": {"X": 1.0, "Y": -1.0}, "interpolation": 2}]}, "crop_width": {"Points": [{"co": {"X": 1.0, "Y": -1.0}, "interpolation": 2}]}, "crop_x": {"Points": [{"co": {"X": 1.0, "Y": 0.0}, "interpolation": 2}]}, "crop_y": {"Points": [{"co": {"X": 1.0, "Y": 0.0}, "interpolation": 2}]}, "display": 0, "duration": 86400.0, "effects": [], "end": 2.44, "gravity": 4, "has_audio": {"Points": [{"co": {"X": 1.0, "Y": -1.0}, "interpolation": 2}]}, "has_video": {"Points": [{"co": {"X": 1.0, "Y": -1.0}, "interpolation": 2}]}, "id": "2D1LAE8O93", "layer": 0, "location_x": {"Points": [{"co": {"X": 1.0, "Y": 0.0}, "interpolation": 2}]}, "location_y": {"Points": [{"co": {"X": 1.0, "Y": 0.0}, "interpolation": 2}]}, "mixing": 0, "perspective_c1_x": {"Points": [{"co": {"X": 1.0, "Y": -1.0}, "interpolation": 2}]}, "perspective_c1_y": {"Points": [{"co": {"X": 1.0, "Y": -1.0}, "interpolation": 2}]}, "perspective_c2_x": {"Points": [{"co": {"X": 1.0, "Y": -1.0}, "interpolation": 2}]}, "perspective_c2_y": {"Points": [{"co": {"X": 1.0, "Y": -1.0}, "interpolation": 2}]}, "perspective_c3_x": {"Points": [{"co": {"X": 1.0, "Y": -1.0}, "interpolation": 2}]}, "perspective_c3_y": {"Points": [{"co": {"X": 1.0, "Y": -1.0}, "interpolation": 2}]}, "perspective_c4_x": {"Points": [{"co": {"X": 1.0, "Y": -1.0}, "interpolation": 2}]}, "perspective_c4_y": {"Points": [{"co": {"X": 1.0, "Y": -1.0}, "interpolation": 2}]}, "position": 5.52, "reader": {"acodec": "", "audio_bit_rate": 0, "audio_stream_index": -1, "audio_timebase": {"den": 1, "num": 1}, "channel_layout": 4, "channels": 0, "display_ratio": {"den": 709, "num": 391}, "duration": 86400.0, "file_size": "1108876", "fps": {"den": 1, "num": 30}, "has_audio": false, "has_single_image": true, "has_video": true, "height": 709, "interlaced_frame": false, "metadata": {}, "path": "/home/lordacil/Downloads/rental/wa3.png", "pixel_format": -1, "pixel_ratio": {"den": 1, "num": 1}, "sample_rate": 0, "top_field_first": true, "type": "QtImageReader", "vcodec": "", "video_bit_rate": 0, "video_length": "2592000", "video_stream_index": -1, "video_timebase": {"den": 30, "num": 1}, "width": 391}, "rotation": {"Points": [{"co": {"X": 1.0, "Y": 0.0}, "interpolation": 2}]}, "scale": 1, "scale_x": {"Points": [{"co": {"X": 1.0, "Y": 1.0}, "interpolation": 2}, {"co": {"X": 17, "Y": 2.654255319148936}, "interpolation": 0}]}, "scale_y": {"Points": [{"co": {"X": 1.0, "Y": 1.0}, "interpolation": 2}, {"co": {"X": 17, "Y": 1.7830188679245282}, "interpolation": 0}]}, "shear_x": {"Points": [{"co": {"X": 1.0, "Y": 0.0}, "interpolation": 2}]}, "shear_y": {"Points": [{"co": {"X": 1.0, "Y": 0.0}, "interpolation": 2}]}, "start": 0, "time": {"Points": [{"co": {"X": 1.0, "Y": 1.0}, "interpolation": 2}]}, "volume": {"Points": [{"co": {"X": 1.0, "Y": 1.0}, "interpolation": 2}]}, "wave_color": {"alpha": {"Points": [{"co": {"X": 1.0, "Y": 255.0}, "handle_left": {"X": 0.5, "Y": 1.0}, "handle_right": {"X": 0.5, "Y": 0.0}, "handle_type": 0, "interpolation": 0}]}, "blue": {"Points": [{"co": {"X": 1.0, "Y": 255.0}, "handle_left": {"X": 0.5, "Y": 1.0}, "handle_right": {"X": 0.5, "Y": 0.0}, "handle_type": 0, "interpolation": 0}]}, "green": {"Points": [{"co": {"X": 1.0, "Y": 123.0}, "handle_left": {"X": 0.5, "Y": 1.0}, "handle_right": {"X": 0.5, "Y": 0.0}, "handle_type": 0, "interpolation": 0}]}, "red": {"Points": [{"co": {"X": 1.0, "Y": 0.0}, "handle_left": {"X": 0.5, "Y": 1.0}, "handle_right": {"X": 0.5, "Y": 0.0}, "handle_type": 0, "interpolation": 0}]}}, "waveform": false, "file_id": "H68DFQTNFM", "title": "wa3.png", "image": "/home/lordacil/.openshot_qt/thumbnail/H68DFQTNFM.png"}}, {"type": "update", "key": ["clips", {"id": "CUV34NAA8Q"}], "value": {"scale_x": {"Points": [{"co": {"X": 1.0, "Y": 1.0}, "interpolation": 2}, {"co": {"X": 10, "Y": 2.5531914893617023}, "interpolation": 0}]}}, "partial": false, "old_values": {"alpha": {"Points": [{"co": {"X": 1.0, "Y": 1.0}, "interpolation": 2}]}, "anchor": 0, "channel_filter": {"Points": [{"co": {"X": 1.0, "Y": -1.0}, "interpolation": 2}]}, "channel_mapping": {"Points": [{"co": {"X": 1.0, "Y": -1.0}, "interpolation": 2}]}, "crop_height": {"Points": [{"co": {"X": 1.0, "Y": -1.0}, "interpolation": 2}]}, "crop_width": {"Points": [{"co": {"X": 1.0, "Y": -1.0}, "interpolation": 2}]}, "crop_x": {"Points": [{"co": {"X": 1.0, "Y": 0.0}, "interpolation": 2}]}, "crop_y": {"Points": [{"co": {"X": 1.0, "Y": 0.0}, "interpolation": 2}]}, "display": 0, "duration": 86400.0, "effects": [], "end": 0.92, "gravity": 4, "has_audio": {"Points": [{"co": {"X": 1.0, "Y": -1.0}, "interpolation": 2}]}, "has_video": {"Points": [{"co": {"X": 1.0, "Y": -1.0}, "interpolation": 2}]}, "id": "CUV34NAA8Q", "layer": 0, "location_x": {"Points": [{"co": {"X": 1.0, "Y": 0.0}, "interpolation": 2}]}, "location_y": {"Points": [{"co": {"X": 1.0, "Y": 0.0}, "interpolation": 2}]}, "mixing": 0, "perspective_c1_x": {"Points": [{"co": {"X": 1.0, "Y": -1.0}, "interpolation": 2}]}, "perspective_c1_y": {"Points": [{"co": {"X": 1.0, "Y": -1.0}, "interpolation": 2}]}, "perspective_c2_x": {"Points": [{"co": {"X": 1.0, "Y": -1.0}, "interpolation": 2}]}, "perspective_c2_y": {"Points": [{"co": {"X": 1.0, "Y": -1.0}, "interpolation": 2}]}, "perspective_c3_x": {"Points": [{"co": {"X": 1.0, "Y": -1.0}, "interpolation": 2}]}, "perspective_c3_y": {"Points": [{"co": {"X": 1.0, "Y": -1.0}, "interpolation": 2}]}, "perspective_c4_x": {"Points": [{"co": {"X": 1.0, "Y": -1.0}, "interpolation": 2}]}, "perspective_c4_y": {"Points": [{"co": {"X": 1.0, "Y": -1.0}, "interpolation": 2}]}, "position": 7.96, "reader": {"acodec": "", "audio_bit_rate": 0, "audio_stream_index": -1, "audio_timebase": {"den": 1, "num": 1}, "channel_layout": 4, "channels": 0, "display_ratio": {"den": 709, "num": 391}, "duration": 86400.0, "file_size": "1108876", "fps": {"den": 1, "num": 30}, "has_audio": false, "has_single_image": true, "has_video": true, "height": 709, "interlaced_frame": false, "metadata": {}, "path": "/home/lordacil/Downloads/rental/wa4.png", "pixel_format": -1, "pixel_ratio": {"den": 1, "num": 1}, "sample_rate": 0, "top_field_first": true, "type": "QtImageReader", "vcodec": "", "video_bit_rate": 0, "video_length": "2592000", "video_stream_index": -1, "video_timebase": {"den": 30, "num": 1}, "width": 391}, "rotation": {"Points": [{"co": {"X": 1.0, "Y": 0.0}, "interpolation": 2}]}, "scale": 1, "scale_x": {"Points": [{"co": {"X": 1.0, "Y": 1.0}, "interpolation": 2}]}, "scale_y": {"Points": [{"co": {"X": 1.0, "Y": 1.0}, "interpolation": 2}]}, "shear_x": {"Points": [{"co": {"X": 1.0, "Y": 0.0}, "interpolation": 2}]}, "shear_y": {"Points": [{"co": {"X": 1.0, "Y": 0.0}, "interpolation": 2}]}, "start": 0, "time": {"Points": [{"co": {"X": 1.0, "Y": 1.0}, "interpolation": 2}]}, "volume": {"Points": [{"co": {"X": 1.0, "Y": 1.0}, "interpolation": 2}]}, "wave_color": {"alpha": {"Points": [{"co": {"X": 1.0, "Y": 255.0}, "handle_left": {"X": 0.5, "Y": 1.0}, "handle_right": {"X": 0.5, "Y": 0.0}, "handle_type": 0, "interpolation": 0}]}, "blue": {"Points": [{"co": {"X": 1.0, "Y": 255.0}, "handle_left": {"X": 0.5, "Y": 1.0}, "handle_right": {"X": 0.5, "Y": 0.0}, "handle_type": 0, "interpolation": 0}]}, "green": {"Points": [{"co": {"X": 1.0, "Y": 123.0}, "handle_left": {"X": 0.5, "Y": 1.0}, "handle_right": {"X": 0.5, "Y": 0.0}, "handle_type": 0, "interpolation": 0}]}, "red": {"Points": [{"co": {"X": 1.0, "Y": 0.0}, "handle_left": {"X": 0.5, "Y": 1.0}, "handle_right": {"X": 0.5, "Y": 0.0}, "handle_type": 0, "interpolation": 0}]}}, "waveform": false, "file_id": "V4UFWWPQWS", "title": "wa4.png", "image": "/home/lordacil/.openshot_qt/thumbnail/V4UFWWPQWS.png"}}, {"type": "update", "key": ["clips", {"id": "CUV34NAA8Q"}], "value": {"scale_y": {"Points": [{"co": {"X": 1.0, "Y": 1.0}, "interpolation": 2}, {"co": {"X": 10, "Y": 1.7169811320754718}, "interpolation": 0}]}}, "partial": false, "old_values": {"alpha": {"Points": [{"co": {"X": 1.0, "Y": 1.0}, "interpolation": 2}]}, "anchor": 0, "channel_filter": {"Points": [{"co": {"X": 1.0, "Y": -1.0}, "interpolation": 2}]}, "channel_mapping": {"Points": [{"co": {"X": 1.0, "Y": -1.0}, "interpolation": 2}]}, "crop_height": {"Points": [{"co": {"X": 1.0, "Y": -1.0}, "interpolation": 2}]}, "crop_width": {"Points": [{"co": {"X": 1.0, "Y": -1.0}, "interpolation": 2}]}, "crop_x": {"Points": [{"co": {"X": 1.0, "Y": 0.0}, "interpolation": 2}]}, "crop_y": {"Points": [{"co": {"X": 1.0, "Y": 0.0}, "interpolation": 2}]}, "display": 0, "duration": 86400.0, "effects": [], "end": 0.92, "gravity": 4, "has_audio": {"Points": [{"co": {"X": 1.0, "Y": -1.0}, "interpolation": 2}]}, "has_video": {"Points": [{"co": {"X": 1.0, "Y": -1.0}, "interpolation": 2}]}, "id": "CUV34NAA8Q", "layer": 0, "location_x": {"Points": [{"co": {"X": 1.0, "Y": 0.0}, "interpolation": 2}]}, "location_y": {"Points": [{"co": {"X": 1.0, "Y": 0.0}, "interpolation": 2}]}, "mixing": 0, "perspective_c1_x": {"Points": [{"co": {"X": 1.0, "Y": -1.0}, "interpolation": 2}]}, "perspective_c1_y": {"Points": [{"co": {"X": 1.0, "Y": -1.0}, "interpolation": 2}]}, "perspective_c2_x": {"Points": [{"co": {"X": 1.0, "Y": -1.0}, "interpolation": 2}]}, "perspective_c2_y": {"Points": [{"co": {"X": 1.0, "Y": -1.0}, "interpolation": 2}]}, "perspective_c3_x": {"Points": [{"co": {"X": 1.0, "Y": -1.0}, "interpolation": 2}]}, "perspective_c3_y": {"Points": [{"co": {"X": 1.0, "Y": -1.0}, "interpolation": 2}]}, "perspective_c4_x": {"Points": [{"co": {"X": 1.0, "Y": -1.0}, "interpolation": 2}]}, "perspective_c4_y": {"Points": [{"co": {"X": 1.0, "Y": -1.0}, "interpolation": 2}]}, "position": 7.96, "reader": {"acodec": "", "audio_bit_rate": 0, "audio_stream_index": -1, "audio_timebase": {"den": 1, "num": 1}, "channel_layout": 4, "channels": 0, "display_ratio": {"den": 709, "num": 391}, "duration": 86400.0, "file_size": "1108876", "fps": {"den": 1, "num": 30}, "has_audio": false, "has_single_image": true, "has_video": true, "height": 709, "interlaced_frame": false, "metadata": {}, "path": "/home/lordacil/Downloads/rental/wa4.png", "pixel_format": -1, "pixel_ratio": {"den": 1, "num": 1}, "sample_rate": 0, "top_field_first": true, "type": "QtImageReader", "vcodec": "", "video_bit_rate": 0, "video_length": "2592000", "video_stream_index": -1, "video_timebase": {"den": 30, "num": 1}, "width": 391}, "rotation": {"Points": [{"co": {"X": 1.0, "Y": 0.0}, "interpolation": 2}]}, "scale": 1, "scale_x": {"Points": [{"co": {"X": 1.0, "Y": 1.0}, "interpolation": 2}, {"co": {"X": 10, "Y": 2.5531914893617023}, "interpolation": 0}]}, "scale_y": {"Points": [{"co": {"X": 1.0, "Y": 1.0}, "interpolation": 2}]}, "shear_x": {"Points": [{"co": {"X": 1.0, "Y": 0.0}, "interpolation": 2}]}, "shear_y": {"Points": [{"co": {"X": 1.0, "Y": 0.0}, "interpolation": 2}]}, "start": 0, "time": {"Points": [{"co": {"X": 1.0, "Y": 1.0}, "interpolation": 2}]}, "volume": {"Points": [{"co": {"X": 1.0, "Y": 1.0}, "interpolation": 2}]}, "wave_color": {"alpha": {"Points": [{"co": {"X": 1.0, "Y": 255.0}, "handle_left": {"X": 0.5, "Y": 1.0}, "handle_right": {"X": 0.5, "Y": 0.0}, "handle_type": 0, "interpolation": 0}]}, "blue": {"Points": [{"co": {"X": 1.0, "Y": 255.0}, "handle_left": {"X": 0.5, "Y": 1.0}, "handle_right": {"X": 0.5, "Y": 0.0}, "handle_type": 0, "interpolation": 0}]}, "green": {"Points": [{"co": {"X": 1.0, "Y": 123.0}, "handle_left": {"X": 0.5, "Y": 1.0}, "handle_right": {"X": 0.5, "Y": 0.0}, "handle_type": 0, "interpolation": 0}]}, "red": {"Points": [{"co": {"X": 1.0, "Y": 0.0}, "handle_left": {"X": 0.5, "Y": 1.0}, "handle_right": {"X": 0.5, "Y": 0.0}, "handle_type": 0, "interpolation": 0}]}}, "waveform": false, "file_id": "V4UFWWPQWS", "title": "wa4.png", "image": "/home/lordacil/.openshot_qt/thumbnail/V4UFWWPQWS.png"}}], "redo": []}, "version": {"openshot-qt": "2.4.3", "libopenshot": "0.2.2"}}